<svg width="920" height="430" viewBox="0 0 920 430" xmlns="http://www.w3.org/2000/svg">
<rect x="0.5" y="0.5" width="919" height="429" rx="14" fill="#0B0E11" stroke="#1B2130"/>
<text x="26" y="34" font-family="ui-sans-serif,system-ui,-apple-system,'Segoe UI',Roboto,sans-serif" font-size="13" font-weight="700" letter-spacing="1.2" fill="#EAECEF">STARLASH7 · COMMITS<tspan fill="#6E7887" font-weight="500" letter-spacing="0.6">  1W · LAST 52W</tspan></text>
<text x="26" y="70" font-family="ui-monospace,'SF Mono',SFMono-Regular,Menlo,Consolas,monospace" font-size="32" font-weight="800" fill="#F6465D" letter-spacing="-0.5">27</text>
<rect x="80" y="50" width="109" height="24" rx="6" fill="#F6465D" opacity="0.14"/>
<text x="134" y="66" text-anchor="middle" font-family="ui-monospace,'SF Mono',SFMono-Regular,Menlo,Consolas,monospace" font-size="12" font-weight="700" fill="#F6465D">-31 (-53.4%)</text>
<text x="844" y="34" text-anchor="end" font-family="ui-monospace,'SF Mono',SFMono-Regular,Menlo,Consolas,monospace" font-size="11" letter-spacing="0.3"><tspan fill="#6E7887">O</tspan> <tspan fill="#F6465D">58</tspan>  <tspan fill="#6E7887">H</tspan> <tspan fill="#F6465D">58</tspan>  <tspan fill="#6E7887">L</tspan> <tspan fill="#F6465D">27</tspan>  <tspan fill="#6E7887">C</tspan> <tspan fill="#F6465D">27</tspan></text>
<text x="844" y="54" text-anchor="end" font-family="ui-monospace,'SF Mono',SFMono-Regular,Menlo,Consolas,monospace" font-size="11" letter-spacing="0.3"><tspan fill="#6E7887">YTD</tspan> <tspan fill="#EAECEF">1,007</tspan>  <tspan fill="#6E7887">CANDLES</tspan> <tspan fill="#EAECEF">52</tspan></text>
<line x1="18" y1="82" x2="902" y2="82" stroke="#1B2130" stroke-width="1"/>
<text x="437.0" y="222.0" text-anchor="middle" font-family="ui-sans-serif,system-ui,-apple-system,'Segoe UI',Roboto,sans-serif" font-size="38" font-weight="800" letter-spacing="6" fill="#EAECEF" opacity="0.035">STARLASH7</text>
<line x1="18" y1="271.0" x2="856" y2="271.0" stroke="#161C26" stroke-width="1"/>
<text x="866" y="274.5" font-family="ui-monospace,'SF Mono',SFMono-Regular,Menlo,Consolas,monospace" font-size="10.5" fill="#6E7887">32</text>
<line x1="18" y1="210.0" x2="856" y2="210.0" stroke="#161C26" stroke-width="1"/>
<text x="866" y="213.5" font-family="ui-monospace,'SF Mono',SFMono-Regular,Menlo,Consolas,monospace" font-size="10.5" fill="#6E7887">63</text>
<line x1="18" y1="149.0" x2="856" y2="149.0" stroke="#161C26" stroke-width="1"/>
<text x="866" y="152.5" font-family="ui-monospace,'SF Mono',SFMono-Regular,Menlo,Consolas,monospace" font-size="10.5" fill="#6E7887">95</text>
<line x1="18" y1="88.0" x2="856" y2="88.0" stroke="#161C26" stroke-width="1"/>
<text x="866" y="91.5" font-family="ui-monospace,'SF Mono',SFMono-Regular,Menlo,Consolas,monospace" font-size="10.5" fill="#6E7887">126</text>
<line x1="856" y1="82" x2="856" y2="400" stroke="#242B38" stroke-width="1"/>
<line x1="18" y1="279.9" x2="856" y2="279.9" stroke="#F6465D" stroke-width="1" stroke-dasharray="2 4" opacity="0.55"/>
<rect x="860" y="269.9" width="50" height="20" rx="5" fill="#F6465D"/>
<text x="885.0" y="283.7" text-anchor="middle" font-family="ui-monospace,'SF Mono',SFMono-Regular,Menlo,Consolas,monospace" font-size="11.5" font-weight="800" fill="#0B0E11">27</text>
<line x1="26.1" y1="332.0" x2="26.1" y2="332.0" stroke="#0ECB81" stroke-width="1"/>
<rect x="21.2" y="332.0" width="9.7" height="1.4" rx="1" fill="#0ECB81"/>
<line x1="42.2" y1="326.2" x2="42.2" y2="332.0" stroke="#0ECB81" stroke-width="1"/>
<rect x="37.3" y="326.2" width="9.7" height="5.8" rx="1" fill="#0ECB81"/>
<line x1="58.3" y1="326.2" x2="58.3" y2="332.0" stroke="#F6465D" stroke-width="1"/>
<rect x="53.5" y="326.2" width="9.7" height="5.8" rx="1" fill="#F6465D"/>
<line x1="74.4" y1="332.0" x2="74.4" y2="332.0" stroke="#0ECB81" stroke-width="1"/>
<rect x="69.6" y="332.0" width="9.7" height="1.4" rx="1" fill="#0ECB81"/>
<line x1="90.5" y1="332.0" x2="90.5" y2="332.0" stroke="#0ECB81" stroke-width="1"/>
<rect x="85.7" y="332.0" width="9.7" height="1.4" rx="1" fill="#0ECB81"/>
<line x1="106.6" y1="332.0" x2="106.6" y2="332.0" stroke="#0ECB81" stroke-width="1"/>
<rect x="101.8" y="332.0" width="9.7" height="1.4" rx="1" fill="#0ECB81"/>
<line x1="122.8" y1="332.0" x2="122.8" y2="332.0" stroke="#0ECB81" stroke-width="1"/>
<rect x="117.9" y="332.0" width="9.7" height="1.4" rx="1" fill="#0ECB81"/>
<line x1="138.9" y1="332.0" x2="138.9" y2="332.0" stroke="#0ECB81" stroke-width="1"/>
<rect x="134.0" y="332.0" width="9.7" height="1.4" rx="1" fill="#0ECB81"/>
<line x1="155.0" y1="332.0" x2="155.0" y2="332.0" stroke="#0ECB81" stroke-width="1"/>
<rect x="150.1" y="332.0" width="9.7" height="1.4" rx="1" fill="#0ECB81"/>
<line x1="171.1" y1="332.0" x2="171.1" y2="332.0" stroke="#0ECB81" stroke-width="1"/>
<rect x="166.3" y="332.0" width="9.7" height="1.4" rx="1" fill="#0ECB81"/>
<line x1="187.2" y1="332.0" x2="187.2" y2="332.0" stroke="#0ECB81" stroke-width="1"/>
<rect x="182.4" y="332.0" width="9.7" height="1.4" rx="1" fill="#0ECB81"/>
<line x1="203.3" y1="326.2" x2="203.3" y2="332.0" stroke="#0ECB81" stroke-width="1"/>
<rect x="198.5" y="326.2" width="9.7" height="5.8" rx="1" fill="#0ECB81"/>
<line x1="219.4" y1="322.4" x2="219.4" y2="326.2" stroke="#0ECB81" stroke-width="1"/>
<rect x="214.6" y="322.4" width="9.7" height="3.9" rx="1" fill="#0ECB81"/>
<line x1="235.6" y1="322.4" x2="235.6" y2="326.2" stroke="#F6465D" stroke-width="1"/>
<rect x="230.7" y="322.4" width="9.7" height="3.9" rx="1" fill="#F6465D"/>
<line x1="251.7" y1="326.2" x2="251.7" y2="330.1" stroke="#F6465D" stroke-width="1"/>
<rect x="246.8" y="326.2" width="9.7" height="3.9" rx="1" fill="#F6465D"/>
<line x1="267.8" y1="330.1" x2="267.8" y2="332.0" stroke="#F6465D" stroke-width="1"/>
<rect x="263.0" y="330.1" width="9.7" height="1.9" rx="1" fill="#F6465D"/>
<line x1="283.9" y1="332.0" x2="283.9" y2="332.0" stroke="#0ECB81" stroke-width="1"/>
<rect x="279.1" y="332.0" width="9.7" height="1.4" rx="1" fill="#0ECB81"/>
<line x1="300.0" y1="332.0" x2="300.0" y2="332.0" stroke="#0ECB81" stroke-width="1"/>
<rect x="295.2" y="332.0" width="9.7" height="1.4" rx="1" fill="#0ECB81"/>
<line x1="316.1" y1="332.0" x2="316.1" y2="332.0" stroke="#0ECB81" stroke-width="1"/>
<rect x="311.3" y="332.0" width="9.7" height="1.4" rx="1" fill="#0ECB81"/>
<line x1="332.3" y1="332.0" x2="332.3" y2="332.0" stroke="#0ECB81" stroke-width="1"/>
<rect x="327.4" y="332.0" width="9.7" height="1.4" rx="1" fill="#0ECB81"/>
<line x1="348.4" y1="332.0" x2="348.4" y2="332.0" stroke="#0ECB81" stroke-width="1"/>
<rect x="343.5" y="332.0" width="9.7" height="1.4" rx="1" fill="#0ECB81"/>
<line x1="364.5" y1="332.0" x2="364.5" y2="332.0" stroke="#0ECB81" stroke-width="1"/>
<rect x="359.6" y="332.0" width="9.7" height="1.4" rx="1" fill="#0ECB81"/>
<line x1="380.6" y1="332.0" x2="380.6" y2="332.0" stroke="#0ECB81" stroke-width="1"/>
<rect x="375.8" y="332.0" width="9.7" height="1.4" rx="1" fill="#0ECB81"/>
<line x1="396.7" y1="332.0" x2="396.7" y2="332.0" stroke="#0ECB81" stroke-width="1"/>
<rect x="391.9" y="332.0" width="9.7" height="1.4" rx="1" fill="#0ECB81"/>
<line x1="412.8" y1="332.0" x2="412.8" y2="332.0" stroke="#0ECB81" stroke-width="1"/>
<rect x="408.0" y="332.0" width="9.7" height="1.4" rx="1" fill="#0ECB81"/>
<line x1="428.9" y1="328.1" x2="428.9" y2="332.0" stroke="#0ECB81" stroke-width="1"/>
<rect x="424.1" y="328.1" width="9.7" height="3.9" rx="1" fill="#0ECB81"/>
<line x1="445.1" y1="260.6" x2="445.1" y2="328.1" stroke="#0ECB81" stroke-width="1"/>
<rect x="440.2" y="260.6" width="9.7" height="67.5" rx="1" fill="#0ECB81"/>
<line x1="461.2" y1="260.6" x2="461.2" y2="283.8" stroke="#F6465D" stroke-width="1"/>
<rect x="456.3" y="260.6" width="9.7" height="23.1" rx="1" fill="#F6465D"/>
<line x1="477.3" y1="283.8" x2="477.3" y2="297.3" stroke="#F6465D" stroke-width="1"/>
<rect x="472.5" y="283.8" width="9.7" height="13.5" rx="1" fill="#F6465D"/>
<line x1="493.4" y1="231.7" x2="493.4" y2="297.3" stroke="#0ECB81" stroke-width="1"/>
<rect x="488.6" y="231.7" width="9.7" height="65.6" rx="1" fill="#0ECB81"/>
<line x1="509.5" y1="220.1" x2="509.5" y2="231.7" stroke="#0ECB81" stroke-width="1"/>
<rect x="504.7" y="220.1" width="9.7" height="11.6" rx="1" fill="#0ECB81"/>
<line x1="525.6" y1="220.1" x2="525.6" y2="276.1" stroke="#F6465D" stroke-width="1"/>
<rect x="520.8" y="220.1" width="9.7" height="55.9" rx="1" fill="#F6465D"/>
<line x1="541.8" y1="276.1" x2="541.8" y2="287.6" stroke="#F6465D" stroke-width="1"/>
<rect x="536.9" y="276.1" width="9.7" height="11.6" rx="1" fill="#F6465D"/>
<line x1="557.9" y1="189.3" x2="557.9" y2="287.6" stroke="#0ECB81" stroke-width="1"/>
<rect x="553.0" y="189.3" width="9.7" height="98.4" rx="1" fill="#0ECB81"/>
<line x1="574.0" y1="189.3" x2="574.0" y2="220.1" stroke="#F6465D" stroke-width="1"/>
<rect x="569.1" y="189.3" width="9.7" height="30.9" rx="1" fill="#F6465D"/>
<line x1="590.1" y1="220.1" x2="590.1" y2="287.6" stroke="#F6465D" stroke-width="1"/>
<rect x="585.3" y="220.1" width="9.7" height="67.5" rx="1" fill="#F6465D"/>
<line x1="606.2" y1="287.6" x2="606.2" y2="287.6" stroke="#0ECB81" stroke-width="1"/>
<rect x="601.4" y="287.6" width="9.7" height="1.4" rx="1" fill="#0ECB81"/>
<line x1="622.3" y1="251.0" x2="622.3" y2="287.6" stroke="#0ECB81" stroke-width="1"/>
<rect x="617.5" y="251.0" width="9.7" height="36.6" rx="1" fill="#0ECB81"/>
<line x1="638.4" y1="251.0" x2="638.4" y2="276.1" stroke="#F6465D" stroke-width="1"/>
<rect x="633.6" y="251.0" width="9.7" height="25.1" rx="1" fill="#F6465D"/>
<line x1="654.6" y1="276.1" x2="654.6" y2="330.1" stroke="#F6465D" stroke-width="1"/>
<rect x="649.7" y="276.1" width="9.7" height="54.0" rx="1" fill="#F6465D"/>
<line x1="670.7" y1="312.7" x2="670.7" y2="330.1" stroke="#0ECB81" stroke-width="1"/>
<rect x="665.8" y="312.7" width="9.7" height="17.4" rx="1" fill="#0ECB81"/>
<line x1="686.8" y1="312.7" x2="686.8" y2="328.1" stroke="#F6465D" stroke-width="1"/>
<rect x="682.0" y="312.7" width="9.7" height="15.4" rx="1" fill="#F6465D"/>
<line x1="702.9" y1="278.0" x2="702.9" y2="328.1" stroke="#0ECB81" stroke-width="1"/>
<rect x="698.1" y="278.0" width="9.7" height="50.2" rx="1" fill="#0ECB81"/>
<line x1="719.0" y1="278.0" x2="719.0" y2="283.8" stroke="#F6465D" stroke-width="1"/>
<rect x="714.2" y="278.0" width="9.7" height="5.8" rx="1" fill="#F6465D"/>
<line x1="735.1" y1="260.6" x2="735.1" y2="283.8" stroke="#0ECB81" stroke-width="1"/>
<rect x="730.3" y="260.6" width="9.7" height="23.1" rx="1" fill="#0ECB81"/>
<line x1="751.2" y1="260.6" x2="751.2" y2="266.4" stroke="#F6465D" stroke-width="1"/>
<rect x="746.4" y="260.6" width="9.7" height="5.8" rx="1" fill="#F6465D"/>
<line x1="767.4" y1="214.3" x2="767.4" y2="266.4" stroke="#0ECB81" stroke-width="1"/>
<rect x="762.5" y="214.3" width="9.7" height="52.1" rx="1" fill="#0ECB81"/>
<line x1="783.5" y1="214.3" x2="783.5" y2="214.3" stroke="#0ECB81" stroke-width="1"/>
<rect x="778.6" y="214.3" width="9.7" height="1.4" rx="1" fill="#0ECB81"/>
<line x1="799.6" y1="214.3" x2="799.6" y2="245.2" stroke="#F6465D" stroke-width="1"/>
<rect x="794.8" y="214.3" width="9.7" height="30.9" rx="1" fill="#F6465D"/>
<line x1="815.7" y1="119.8" x2="815.7" y2="245.2" stroke="#0ECB81" stroke-width="1"/>
<rect x="810.9" y="119.8" width="9.7" height="125.4" rx="1" fill="#0ECB81"/>
<line x1="831.8" y1="119.8" x2="831.8" y2="220.1" stroke="#F6465D" stroke-width="1"/>
<rect x="827.0" y="119.8" width="9.7" height="100.3" rx="1" fill="#F6465D"/>
<line x1="847.9" y1="220.1" x2="847.9" y2="279.9" stroke="#F6465D" stroke-width="1"/>
<rect x="843.1" y="220.1" width="9.7" height="59.8" rx="1" fill="#F6465D"/>
<text x="26" y="355" font-family="ui-monospace,'SF Mono',SFMono-Regular,Menlo,Consolas,monospace" font-size="10" letter-spacing="0.5" fill="#6E7887">VOL <tspan fill="#F6465D">27</tspan></text>
<rect x="21.2" y="400.0" width="9.7" height="1.0" rx="1" fill="#0ECB81" opacity="0.42"/>
<rect x="37.3" y="398.9" width="9.7" height="1.1" rx="1" fill="#0ECB81" opacity="0.42"/>
<rect x="53.5" y="400.0" width="9.7" height="1.0" rx="1" fill="#F6465D" opacity="0.42"/>
<rect x="69.6" y="400.0" width="9.7" height="1.0" rx="1" fill="#0ECB81" opacity="0.42"/>
<rect x="85.7" y="400.0" width="9.7" height="1.0" rx="1" fill="#0ECB81" opacity="0.42"/>
<rect x="101.8" y="400.0" width="9.7" height="1.0" rx="1" fill="#0ECB81" opacity="0.42"/>
<rect x="117.9" y="400.0" width="9.7" height="1.0" rx="1" fill="#0ECB81" opacity="0.42"/>
<rect x="134.0" y="400.0" width="9.7" height="1.0" rx="1" fill="#0ECB81" opacity="0.42"/>
<rect x="150.1" y="400.0" width="9.7" height="1.0" rx="1" fill="#0ECB81" opacity="0.42"/>
<rect x="166.3" y="400.0" width="9.7" height="1.0" rx="1" fill="#0ECB81" opacity="0.42"/>
<rect x="182.4" y="400.0" width="9.7" height="1.0" rx="1" fill="#0ECB81" opacity="0.42"/>
<rect x="198.5" y="398.9" width="9.7" height="1.1" rx="1" fill="#0ECB81" opacity="0.42"/>
<rect x="214.6" y="398.2" width="9.7" height="1.8" rx="1" fill="#0ECB81" opacity="0.42"/>
<rect x="230.7" y="398.9" width="9.7" height="1.1" rx="1" fill="#F6465D" opacity="0.42"/>
<rect x="246.8" y="399.6" width="9.7" height="1.0" rx="1" fill="#F6465D" opacity="0.42"/>
<rect x="263.0" y="400.0" width="9.7" height="1.0" rx="1" fill="#F6465D" opacity="0.42"/>
<rect x="279.1" y="400.0" width="9.7" height="1.0" rx="1" fill="#0ECB81" opacity="0.42"/>
<rect x="295.2" y="400.0" width="9.7" height="1.0" rx="1" fill="#0ECB81" opacity="0.42"/>
<rect x="311.3" y="400.0" width="9.7" height="1.0" rx="1" fill="#0ECB81" opacity="0.42"/>
<rect x="327.4" y="400.0" width="9.7" height="1.0" rx="1" fill="#0ECB81" opacity="0.42"/>
<rect x="343.5" y="400.0" width="9.7" height="1.0" rx="1" fill="#0ECB81" opacity="0.42"/>
<rect x="359.6" y="400.0" width="9.7" height="1.0" rx="1" fill="#0ECB81" opacity="0.42"/>
<rect x="375.8" y="400.0" width="9.7" height="1.0" rx="1" fill="#0ECB81" opacity="0.42"/>
<rect x="391.9" y="400.0" width="9.7" height="1.0" rx="1" fill="#0ECB81" opacity="0.42"/>
<rect x="408.0" y="400.0" width="9.7" height="1.0" rx="1" fill="#0ECB81" opacity="0.42"/>
<rect x="424.1" y="399.3" width="9.7" height="1.0" rx="1" fill="#0ECB81" opacity="0.42"/>
<rect x="440.2" y="386.5" width="9.7" height="13.5" rx="1" fill="#0ECB81" opacity="0.42"/>
<rect x="456.3" y="390.9" width="9.7" height="9.1" rx="1" fill="#F6465D" opacity="0.42"/>
<rect x="472.5" y="393.5" width="9.7" height="6.5" rx="1" fill="#F6465D" opacity="0.42"/>
<rect x="488.6" y="381.1" width="9.7" height="18.9" rx="1" fill="#0ECB81" opacity="0.42"/>
<rect x="504.7" y="378.9" width="9.7" height="21.1" rx="1" fill="#0ECB81" opacity="0.42"/>
<rect x="520.8" y="389.5" width="9.7" height="10.5" rx="1" fill="#F6465D" opacity="0.42"/>
<rect x="536.9" y="391.6" width="9.7" height="8.4" rx="1" fill="#F6465D" opacity="0.42"/>
<rect x="553.0" y="373.1" width="9.7" height="26.9" rx="1" fill="#0ECB81" opacity="0.42"/>
<rect x="569.1" y="378.9" width="9.7" height="21.1" rx="1" fill="#F6465D" opacity="0.42"/>
<rect x="585.3" y="391.6" width="9.7" height="8.4" rx="1" fill="#F6465D" opacity="0.42"/>
<rect x="601.4" y="391.6" width="9.7" height="8.4" rx="1" fill="#0ECB81" opacity="0.42"/>
<rect x="617.5" y="384.7" width="9.7" height="15.3" rx="1" fill="#0ECB81" opacity="0.42"/>
<rect x="633.6" y="389.5" width="9.7" height="10.5" rx="1" fill="#F6465D" opacity="0.42"/>
<rect x="649.7" y="399.6" width="9.7" height="1.0" rx="1" fill="#F6465D" opacity="0.42"/>
<rect x="665.8" y="396.4" width="9.7" height="3.6" rx="1" fill="#0ECB81" opacity="0.42"/>
<rect x="682.0" y="399.3" width="9.7" height="1.0" rx="1" fill="#F6465D" opacity="0.42"/>
<rect x="698.1" y="389.8" width="9.7" height="10.2" rx="1" fill="#0ECB81" opacity="0.42"/>
<rect x="714.2" y="390.9" width="9.7" height="9.1" rx="1" fill="#F6465D" opacity="0.42"/>
<rect x="730.3" y="386.5" width="9.7" height="13.5" rx="1" fill="#0ECB81" opacity="0.42"/>
<rect x="746.4" y="387.6" width="9.7" height="12.4" rx="1" fill="#F6465D" opacity="0.42"/>
<rect x="762.5" y="377.8" width="9.7" height="22.2" rx="1" fill="#0ECB81" opacity="0.42"/>
<rect x="778.6" y="377.8" width="9.7" height="22.2" rx="1" fill="#0ECB81" opacity="0.42"/>
<rect x="794.8" y="383.6" width="9.7" height="16.4" rx="1" fill="#F6465D" opacity="0.42"/>
<rect x="810.9" y="360.0" width="9.7" height="40.0" rx="1" fill="#0ECB81" opacity="0.42"/>
<rect x="827.0" y="378.9" width="9.7" height="21.1" rx="1" fill="#F6465D" opacity="0.42"/>
<rect x="843.1" y="390.2" width="9.7" height="9.8" rx="1" fill="#F6465D" opacity="0.42"/>
<text x="58.3" y="418" text-anchor="middle" font-family="ui-monospace,'SF Mono',SFMono-Regular,Menlo,Consolas,monospace" font-size="10" fill="#6E7887">AUG</text>
<text x="122.8" y="418" text-anchor="middle" font-family="ui-monospace,'SF Mono',SFMono-Regular,Menlo,Consolas,monospace" font-size="10" fill="#6E7887">SEP</text>
<text x="203.3" y="418" text-anchor="middle" font-family="ui-monospace,'SF Mono',SFMono-Regular,Menlo,Consolas,monospace" font-size="10" fill="#6E7887">OCT</text>
<text x="267.8" y="418" text-anchor="middle" font-family="ui-monospace,'SF Mono',SFMono-Regular,Menlo,Consolas,monospace" font-size="10" fill="#6E7887">NOV</text>
<text x="332.3" y="418" text-anchor="middle" font-family="ui-monospace,'SF Mono',SFMono-Regular,Menlo,Consolas,monospace" font-size="10" fill="#6E7887">DEC</text>
<text x="412.8" y="418" text-anchor="middle" font-family="ui-monospace,'SF Mono',SFMono-Regular,Menlo,Consolas,monospace" font-size="10" fill="#6E7887">JAN</text>
<text x="477.3" y="418" text-anchor="middle" font-family="ui-monospace,'SF Mono',SFMono-Regular,Menlo,Consolas,monospace" font-size="10" fill="#6E7887">FEB</text>
<text x="541.8" y="418" text-anchor="middle" font-family="ui-monospace,'SF Mono',SFMono-Regular,Menlo,Consolas,monospace" font-size="10" fill="#6E7887">MAR</text>
<text x="622.3" y="418" text-anchor="middle" font-family="ui-monospace,'SF Mono',SFMono-Regular,Menlo,Consolas,monospace" font-size="10" fill="#6E7887">APR</text>
<text x="686.8" y="418" text-anchor="middle" font-family="ui-monospace,'SF Mono',SFMono-Regular,Menlo,Consolas,monospace" font-size="10" fill="#6E7887">MAY</text>
<text x="751.2" y="418" text-anchor="middle" font-family="ui-monospace,'SF Mono',SFMono-Regular,Menlo,Consolas,monospace" font-size="10" fill="#6E7887">JUN</text>
<text x="831.8" y="418" text-anchor="middle" font-family="ui-monospace,'SF Mono',SFMono-Regular,Menlo,Consolas,monospace" font-size="10" fill="#6E7887">JUL</text>
</svg>