<svg width="920" height="430" viewBox="0 0 920 430" xmlns="http://www.w3.org/2000/svg">
<rect x="0.5" y="0.5" width="919" height="429" rx="14" fill="#0B0E11" stroke="#1B2130"/>
<text x="26" y="34" font-family="ui-sans-serif,system-ui,-apple-system,'Segoe UI',Roboto,sans-serif" font-size="13" font-weight="700" letter-spacing="1.2" fill="#EAECEF">STARLASH7 · COMMITS<tspan fill="#6E7887" font-weight="500" letter-spacing="0.6">  1D · JUL 2026</tspan></text>
<text x="26" y="70" font-family="ui-monospace,'SF Mono',SFMono-Regular,Menlo,Consolas,monospace" font-size="32" font-weight="800" fill="#F6465D" letter-spacing="-0.5">0</text>
<rect x="60" y="50" width="116" height="24" rx="6" fill="#F6465D" opacity="0.14"/>
<text x="118" y="66" text-anchor="middle" font-family="ui-monospace,'SF Mono',SFMono-Regular,Menlo,Consolas,monospace" font-size="12" font-weight="700" fill="#F6465D">-21 (-100.0%)</text>
<text x="844" y="34" text-anchor="end" font-family="ui-monospace,'SF Mono',SFMono-Regular,Menlo,Consolas,monospace" font-size="11" letter-spacing="0.3"><tspan fill="#6E7887">O</tspan> <tspan fill="#F6465D">21</tspan>  <tspan fill="#6E7887">H</tspan> <tspan fill="#F6465D">21</tspan>  <tspan fill="#6E7887">L</tspan> <tspan fill="#F6465D">0</tspan>  <tspan fill="#6E7887">C</tspan> <tspan fill="#F6465D">0</tspan></text>
<text x="844" y="54" text-anchor="end" font-family="ui-monospace,'SF Mono',SFMono-Regular,Menlo,Consolas,monospace" font-size="11" letter-spacing="0.3"><tspan fill="#6E7887">MTD</tspan> <tspan fill="#EAECEF">133</tspan>  <tspan fill="#6E7887">CANDLES</tspan> <tspan fill="#EAECEF">15</tspan></text>
<line x1="18" y1="82" x2="902" y2="82" stroke="#1B2130" stroke-width="1"/>
<text x="437.0" y="222.0" text-anchor="middle" font-family="ui-sans-serif,system-ui,-apple-system,'Segoe UI',Roboto,sans-serif" font-size="38" font-weight="800" letter-spacing="6" fill="#EAECEF" opacity="0.035">STARLASH7</text>
<line x1="18" y1="271.0" x2="856" y2="271.0" stroke="#161C26" stroke-width="1"/>
<text x="866" y="274.5" font-family="ui-monospace,'SF Mono',SFMono-Regular,Menlo,Consolas,monospace" font-size="10.5" fill="#6E7887">6</text>
<line x1="18" y1="210.0" x2="856" y2="210.0" stroke="#161C26" stroke-width="1"/>
<text x="866" y="213.5" font-family="ui-monospace,'SF Mono',SFMono-Regular,Menlo,Consolas,monospace" font-size="10.5" fill="#6E7887">12</text>
<line x1="18" y1="149.0" x2="856" y2="149.0" stroke="#161C26" stroke-width="1"/>
<text x="866" y="152.5" font-family="ui-monospace,'SF Mono',SFMono-Regular,Menlo,Consolas,monospace" font-size="10.5" fill="#6E7887">18</text>
<line x1="18" y1="88.0" x2="856" y2="88.0" stroke="#161C26" stroke-width="1"/>
<text x="866" y="91.5" font-family="ui-monospace,'SF Mono',SFMono-Regular,Menlo,Consolas,monospace" font-size="10.5" fill="#6E7887">24</text>
<line x1="856" y1="82" x2="856" y2="400" stroke="#242B38" stroke-width="1"/>
<line x1="18" y1="332.0" x2="856" y2="332.0" stroke="#F6465D" stroke-width="1" stroke-dasharray="2 4" opacity="0.55"/>
<rect x="860" y="322.0" width="50" height="20" rx="5" fill="#F6465D"/>
<text x="885.0" y="335.8" text-anchor="middle" font-family="ui-monospace,'SF Mono',SFMono-Regular,Menlo,Consolas,monospace" font-size="11.5" font-weight="800" fill="#0B0E11">0</text>
<line x1="45.9" y1="180.4" x2="45.9" y2="231.0" stroke="#F6465D" stroke-width="1"/>
<rect x="39.4" y="180.4" width="13.0" height="50.5" rx="1" fill="#F6465D"/>
<line x1="101.8" y1="220.9" x2="101.8" y2="231.0" stroke="#0ECB81" stroke-width="1"/>
<rect x="95.3" y="220.9" width="13.0" height="10.1" rx="1" fill="#0ECB81"/>
<line x1="157.7" y1="220.9" x2="157.7" y2="251.2" stroke="#F6465D" stroke-width="1"/>
<rect x="151.2" y="220.9" width="13.0" height="30.3" rx="1" fill="#F6465D"/>
<line x1="213.5" y1="251.2" x2="213.5" y2="281.5" stroke="#F6465D" stroke-width="1"/>
<rect x="207.0" y="251.2" width="13.0" height="30.3" rx="1" fill="#F6465D"/>
<line x1="269.4" y1="150.1" x2="269.4" y2="281.5" stroke="#0ECB81" stroke-width="1"/>
<rect x="262.9" y="150.1" width="13.0" height="131.3" rx="1" fill="#0ECB81"/>
<line x1="325.3" y1="150.1" x2="325.3" y2="150.1" stroke="#0ECB81" stroke-width="1"/>
<rect x="318.8" y="150.1" width="13.0" height="1.4" rx="1" fill="#0ECB81"/>
<line x1="381.1" y1="129.9" x2="381.1" y2="150.1" stroke="#0ECB81" stroke-width="1"/>
<rect x="374.6" y="129.9" width="13.0" height="20.2" rx="1" fill="#0ECB81"/>
<line x1="437.0" y1="129.9" x2="437.0" y2="241.1" stroke="#F6465D" stroke-width="1"/>
<rect x="430.5" y="129.9" width="13.0" height="111.1" rx="1" fill="#F6465D"/>
<line x1="492.9" y1="241.1" x2="492.9" y2="291.6" stroke="#F6465D" stroke-width="1"/>
<rect x="486.4" y="241.1" width="13.0" height="50.5" rx="1" fill="#F6465D"/>
<line x1="548.7" y1="271.4" x2="548.7" y2="291.6" stroke="#0ECB81" stroke-width="1"/>
<rect x="542.2" y="271.4" width="13.0" height="20.2" rx="1" fill="#0ECB81"/>
<line x1="604.6" y1="271.4" x2="604.6" y2="321.9" stroke="#F6465D" stroke-width="1"/>
<rect x="598.1" y="271.4" width="13.0" height="50.5" rx="1" fill="#F6465D"/>
<line x1="660.5" y1="321.9" x2="660.5" y2="332.0" stroke="#F6465D" stroke-width="1"/>
<rect x="654.0" y="321.9" width="13.0" height="10.1" rx="1" fill="#F6465D"/>
<line x1="716.3" y1="311.8" x2="716.3" y2="332.0" stroke="#0ECB81" stroke-width="1"/>
<rect x="709.8" y="311.8" width="13.0" height="20.2" rx="1" fill="#0ECB81"/>
<line x1="772.2" y1="119.8" x2="772.2" y2="311.8" stroke="#0ECB81" stroke-width="1"/>
<rect x="765.7" y="119.8" width="13.0" height="192.0" rx="1" fill="#0ECB81"/>
<line x1="828.1" y1="119.8" x2="828.1" y2="332.0" stroke="#F6465D" stroke-width="1"/>
<rect x="821.6" y="119.8" width="13.0" height="212.2" rx="1" fill="#F6465D"/>
<text x="26" y="355" font-family="ui-monospace,'SF Mono',SFMono-Regular,Menlo,Consolas,monospace" font-size="10" letter-spacing="0.5" fill="#6E7887">VOL <tspan fill="#F6465D">0</tspan></text>
<rect x="39.4" y="381.0" width="13.0" height="19.0" rx="1" fill="#F6465D" opacity="0.42"/>
<rect x="95.3" y="379.0" width="13.0" height="21.0" rx="1" fill="#0ECB81" opacity="0.42"/>
<rect x="151.2" y="384.8" width="13.0" height="15.2" rx="1" fill="#F6465D" opacity="0.42"/>
<rect x="207.0" y="390.5" width="13.0" height="9.5" rx="1" fill="#F6465D" opacity="0.42"/>
<rect x="262.9" y="365.7" width="13.0" height="34.3" rx="1" fill="#0ECB81" opacity="0.42"/>
<rect x="318.8" y="365.7" width="13.0" height="34.3" rx="1" fill="#0ECB81" opacity="0.42"/>
<rect x="374.6" y="361.9" width="13.0" height="38.1" rx="1" fill="#0ECB81" opacity="0.42"/>
<rect x="430.5" y="382.9" width="13.0" height="17.1" rx="1" fill="#F6465D" opacity="0.42"/>
<rect x="486.4" y="392.4" width="13.0" height="7.6" rx="1" fill="#F6465D" opacity="0.42"/>
<rect x="542.2" y="388.6" width="13.0" height="11.4" rx="1" fill="#0ECB81" opacity="0.42"/>
<rect x="598.1" y="398.1" width="13.0" height="1.9" rx="1" fill="#F6465D" opacity="0.42"/>
<rect x="654.0" y="400.0" width="13.0" height="1.0" rx="1" fill="#F6465D" opacity="0.42"/>
<rect x="709.8" y="396.2" width="13.0" height="3.8" rx="1" fill="#0ECB81" opacity="0.42"/>
<rect x="765.7" y="360.0" width="13.0" height="40.0" rx="1" fill="#0ECB81" opacity="0.42"/>
<rect x="821.6" y="400.0" width="13.0" height="1.0" rx="1" fill="#F6465D" opacity="0.42"/>
<text x="45.9" y="418" text-anchor="middle" font-family="ui-monospace,'SF Mono',SFMono-Regular,Menlo,Consolas,monospace" font-size="10" fill="#6E7887">01</text>
<text x="269.4" y="418" text-anchor="middle" font-family="ui-monospace,'SF Mono',SFMono-Regular,Menlo,Consolas,monospace" font-size="10" fill="#6E7887">05</text>
<text x="548.7" y="418" text-anchor="middle" font-family="ui-monospace,'SF Mono',SFMono-Regular,Menlo,Consolas,monospace" font-size="10" fill="#6E7887">10</text>
<text x="828.1" y="418" text-anchor="middle" font-family="ui-monospace,'SF Mono',SFMono-Regular,Menlo,Consolas,monospace" font-size="10" fill="#6E7887">15</text>
</svg>