<svg width="920" height="430" viewBox="0 0 920 430" xmlns="http://www.w3.org/2000/svg">
<rect x="0.5" y="0.5" width="919" height="429" rx="14" fill="#0B0E11" stroke="#1B2130"/>
<text x="26" y="34" font-family="ui-sans-serif,system-ui,-apple-system,'Segoe UI',Roboto,sans-serif" font-size="13" font-weight="700" letter-spacing="1.2" fill="#EAECEF">STARLASH7 · COMMITS<tspan fill="#6E7887" font-weight="500" letter-spacing="0.6">  1D · JUL 2026</tspan></text>
<text x="26" y="70" font-family="ui-monospace,'SF Mono',SFMono-Regular,Menlo,Consolas,monospace" font-size="32" font-weight="800" fill="#0ECB81" letter-spacing="-0.5">17</text>
<rect x="80" y="50" width="116" height="24" rx="6" fill="#0ECB81" opacity="0.14"/>
<text x="138" y="66" text-anchor="middle" font-family="ui-monospace,'SF Mono',SFMono-Regular,Menlo,Consolas,monospace" font-size="12" font-weight="700" fill="#0ECB81">+12 (+240.0%)</text>
<text x="844" y="34" text-anchor="end" font-family="ui-monospace,'SF Mono',SFMono-Regular,Menlo,Consolas,monospace" font-size="11" letter-spacing="0.3"><tspan fill="#6E7887">O</tspan> <tspan fill="#0ECB81">5</tspan>  <tspan fill="#6E7887">H</tspan> <tspan fill="#0ECB81">17</tspan>  <tspan fill="#6E7887">L</tspan> <tspan fill="#0ECB81">5</tspan>  <tspan fill="#6E7887">C</tspan> <tspan fill="#0ECB81">17</tspan></text>
<text x="844" y="54" text-anchor="end" font-family="ui-monospace,'SF Mono',SFMono-Regular,Menlo,Consolas,monospace" font-size="11" letter-spacing="0.3"><tspan fill="#6E7887">MTD</tspan> <tspan fill="#EAECEF">51</tspan>  <tspan fill="#6E7887">SESSION</tspan> <tspan fill="#EAECEF">5/31</tspan></text>
<line x1="18" y1="82" x2="902" y2="82" stroke="#1B2130" stroke-width="1"/>
<text x="437.0" y="222.0" text-anchor="middle" font-family="ui-sans-serif,system-ui,-apple-system,'Segoe UI',Roboto,sans-serif" font-size="38" font-weight="800" letter-spacing="6" fill="#EAECEF" opacity="0.035">STARLASH7</text>
<line x1="18" y1="271.0" x2="856" y2="271.0" stroke="#161C26" stroke-width="1"/>
<text x="866" y="274.5" font-family="ui-monospace,'SF Mono',SFMono-Regular,Menlo,Consolas,monospace" font-size="10.5" fill="#6E7887">5</text>
<line x1="18" y1="210.0" x2="856" y2="210.0" stroke="#161C26" stroke-width="1"/>
<text x="866" y="213.5" font-family="ui-monospace,'SF Mono',SFMono-Regular,Menlo,Consolas,monospace" font-size="10.5" fill="#6E7887">10</text>
<line x1="18" y1="149.0" x2="856" y2="149.0" stroke="#161C26" stroke-width="1"/>
<text x="866" y="152.5" font-family="ui-monospace,'SF Mono',SFMono-Regular,Menlo,Consolas,monospace" font-size="10.5" fill="#6E7887">15</text>
<line x1="18" y1="88.0" x2="856" y2="88.0" stroke="#161C26" stroke-width="1"/>
<text x="866" y="91.5" font-family="ui-monospace,'SF Mono',SFMono-Regular,Menlo,Consolas,monospace" font-size="10.5" fill="#6E7887">20</text>
<line x1="856" y1="82" x2="856" y2="400" stroke="#242B38" stroke-width="1"/>
<line x1="18" y1="119.8" x2="856" y2="119.8" stroke="#0ECB81" stroke-width="1" stroke-dasharray="2 4" opacity="0.55"/>
<rect x="860" y="109.8" width="50" height="20" rx="5" fill="#0ECB81"/>
<text x="885.0" y="123.6" text-anchor="middle" font-family="ui-monospace,'SF Mono',SFMono-Regular,Menlo,Consolas,monospace" font-size="11.5" font-weight="800" fill="#0B0E11">17</text>
<line x1="31.5" y1="144.8" x2="31.5" y2="207.2" stroke="#F6465D" stroke-width="1"/>
<rect x="25.0" y="144.8" width="13.0" height="62.4" rx="1" fill="#F6465D"/>
<line x1="58.5" y1="194.7" x2="58.5" y2="207.2" stroke="#0ECB81" stroke-width="1"/>
<rect x="52.0" y="194.7" width="13.0" height="12.5" rx="1" fill="#0ECB81"/>
<line x1="85.6" y1="194.7" x2="85.6" y2="232.2" stroke="#F6465D" stroke-width="1"/>
<rect x="79.1" y="194.7" width="13.0" height="37.4" rx="1" fill="#F6465D"/>
<line x1="112.6" y1="232.2" x2="112.6" y2="269.6" stroke="#F6465D" stroke-width="1"/>
<rect x="106.1" y="232.2" width="13.0" height="37.4" rx="1" fill="#F6465D"/>
<line x1="139.6" y1="119.8" x2="139.6" y2="269.6" stroke="#0ECB81" stroke-width="1"/>
<rect x="133.1" y="119.8" width="13.0" height="149.8" rx="1" fill="#0ECB81"/>
<text x="26" y="355" font-family="ui-monospace,'SF Mono',SFMono-Regular,Menlo,Consolas,monospace" font-size="10" letter-spacing="0.5" fill="#6E7887">VOL <tspan fill="#0ECB81">17</tspan></text>
<rect x="25.0" y="376.5" width="13.0" height="23.5" rx="1" fill="#F6465D" opacity="0.42"/>
<rect x="52.0" y="374.1" width="13.0" height="25.9" rx="1" fill="#0ECB81" opacity="0.42"/>
<rect x="79.1" y="381.2" width="13.0" height="18.8" rx="1" fill="#F6465D" opacity="0.42"/>
<rect x="106.1" y="388.2" width="13.0" height="11.8" rx="1" fill="#F6465D" opacity="0.42"/>
<rect x="133.1" y="360.0" width="13.0" height="40.0" rx="1" fill="#0ECB81" opacity="0.42"/>
<text x="31.5" y="418" text-anchor="middle" font-family="ui-monospace,'SF Mono',SFMono-Regular,Menlo,Consolas,monospace" font-size="10" fill="#6E7887">01</text>
<text x="139.6" y="418" text-anchor="middle" font-family="ui-monospace,'SF Mono',SFMono-Regular,Menlo,Consolas,monospace" font-size="10" fill="#6E7887">05</text>
<text x="274.8" y="418" text-anchor="middle" font-family="ui-monospace,'SF Mono',SFMono-Regular,Menlo,Consolas,monospace" font-size="10" fill="#6E7887">10</text>
<text x="410.0" y="418" text-anchor="middle" font-family="ui-monospace,'SF Mono',SFMono-Regular,Menlo,Consolas,monospace" font-size="10" fill="#6E7887">15</text>
<text x="545.1" y="418" text-anchor="middle" font-family="ui-monospace,'SF Mono',SFMono-Regular,Menlo,Consolas,monospace" font-size="10" fill="#6E7887">20</text>
<text x="680.3" y="418" text-anchor="middle" font-family="ui-monospace,'SF Mono',SFMono-Regular,Menlo,Consolas,monospace" font-size="10" fill="#6E7887">25</text>
<text x="815.5" y="418" text-anchor="middle" font-family="ui-monospace,'SF Mono',SFMono-Regular,Menlo,Consolas,monospace" font-size="10" fill="#6E7887">30</text>
</svg>