<svg width="920" height="430" viewBox="0 0 920 430" xmlns="http://www.w3.org/2000/svg">
<rect x="0.5" y="0.5" width="919" height="429" rx="14" fill="#0B0E11" stroke="#1B2130"/>
<text x="26" y="34" font-family="ui-sans-serif,system-ui,-apple-system,'Segoe UI',Roboto,sans-serif" font-size="13" font-weight="700" letter-spacing="1.2" fill="#EAECEF">STARLASH7 · COMMITS<tspan fill="#6E7887" font-weight="500" letter-spacing="0.6">  1W · LAST 52W</tspan></text>
<text x="26" y="70" font-family="ui-monospace,'SF Mono',SFMono-Regular,Menlo,Consolas,monospace" font-size="32" font-weight="800" fill="#F6465D" letter-spacing="-0.5">61</text>
<rect x="80" y="50" width="109" height="24" rx="6" fill="#F6465D" opacity="0.14"/>
<text x="134" y="66" text-anchor="middle" font-family="ui-monospace,'SF Mono',SFMono-Regular,Menlo,Consolas,monospace" font-size="12" font-weight="700" fill="#F6465D">-97 (-61.4%)</text>
<text x="844" y="34" text-anchor="end" font-family="ui-monospace,'SF Mono',SFMono-Regular,Menlo,Consolas,monospace" font-size="11" letter-spacing="0.3"><tspan fill="#6E7887">O</tspan> <tspan fill="#F6465D">158</tspan>  <tspan fill="#6E7887">H</tspan> <tspan fill="#F6465D">158</tspan>  <tspan fill="#6E7887">L</tspan> <tspan fill="#F6465D">61</tspan>  <tspan fill="#6E7887">C</tspan> <tspan fill="#F6465D">61</tspan></text>
<text x="844" y="54" text-anchor="end" font-family="ui-monospace,'SF Mono',SFMono-Regular,Menlo,Consolas,monospace" font-size="11" letter-spacing="0.3"><tspan fill="#6E7887">YTD</tspan> <tspan fill="#EAECEF">1,628</tspan>  <tspan fill="#6E7887">CANDLES</tspan> <tspan fill="#EAECEF">52</tspan></text>
<line x1="18" y1="82" x2="902" y2="82" stroke="#1B2130" stroke-width="1"/>
<text x="437.0" y="222.0" text-anchor="middle" font-family="ui-sans-serif,system-ui,-apple-system,'Segoe UI',Roboto,sans-serif" font-size="38" font-weight="800" letter-spacing="6" fill="#EAECEF" opacity="0.035">STARLASH7</text>
<line x1="18" y1="271.0" x2="856" y2="271.0" stroke="#161C26" stroke-width="1"/>
<text x="866" y="274.5" font-family="ui-monospace,'SF Mono',SFMono-Regular,Menlo,Consolas,monospace" font-size="10.5" fill="#6E7887">45</text>
<line x1="18" y1="210.0" x2="856" y2="210.0" stroke="#161C26" stroke-width="1"/>
<text x="866" y="213.5" font-family="ui-monospace,'SF Mono',SFMono-Regular,Menlo,Consolas,monospace" font-size="10.5" fill="#6E7887">91</text>
<line x1="18" y1="149.0" x2="856" y2="149.0" stroke="#161C26" stroke-width="1"/>
<text x="866" y="152.5" font-family="ui-monospace,'SF Mono',SFMono-Regular,Menlo,Consolas,monospace" font-size="10.5" fill="#6E7887">136</text>
<line x1="18" y1="88.0" x2="856" y2="88.0" stroke="#161C26" stroke-width="1"/>
<text x="866" y="91.5" font-family="ui-monospace,'SF Mono',SFMono-Regular,Menlo,Consolas,monospace" font-size="10.5" fill="#6E7887">182</text>
<line x1="856" y1="82" x2="856" y2="400" stroke="#242B38" stroke-width="1"/>
<line x1="18" y1="250.1" x2="856" y2="250.1" stroke="#F6465D" stroke-width="1" stroke-dasharray="2 4" opacity="0.55"/>
<rect x="860" y="240.1" width="50" height="20" rx="5" fill="#F6465D"/>
<text x="885.0" y="253.9" text-anchor="middle" font-family="ui-monospace,'SF Mono',SFMono-Regular,Menlo,Consolas,monospace" font-size="11.5" font-weight="800" fill="#0B0E11">61</text>
<line x1="26.1" y1="332.0" x2="26.1" y2="332.0" stroke="#0ECB81" stroke-width="1"/>
<rect x="21.2" y="332.0" width="9.7" height="1.4" rx="1" fill="#0ECB81"/>
<line x1="42.2" y1="332.0" x2="42.2" y2="332.0" stroke="#0ECB81" stroke-width="1"/>
<rect x="37.3" y="332.0" width="9.7" height="1.4" rx="1" fill="#0ECB81"/>
<line x1="58.3" y1="332.0" x2="58.3" y2="332.0" stroke="#0ECB81" stroke-width="1"/>
<rect x="53.5" y="332.0" width="9.7" height="1.4" rx="1" fill="#0ECB81"/>
<line x1="74.4" y1="332.0" x2="74.4" y2="332.0" stroke="#0ECB81" stroke-width="1"/>
<rect x="69.6" y="332.0" width="9.7" height="1.4" rx="1" fill="#0ECB81"/>
<line x1="90.5" y1="329.3" x2="90.5" y2="332.0" stroke="#0ECB81" stroke-width="1"/>
<rect x="85.7" y="329.3" width="9.7" height="2.7" rx="1" fill="#0ECB81"/>
<line x1="106.6" y1="326.6" x2="106.6" y2="329.3" stroke="#0ECB81" stroke-width="1"/>
<rect x="101.8" y="326.6" width="9.7" height="2.7" rx="1" fill="#0ECB81"/>
<line x1="122.8" y1="326.6" x2="122.8" y2="328.0" stroke="#F6465D" stroke-width="1"/>
<rect x="117.9" y="326.6" width="9.7" height="1.4" rx="1" fill="#F6465D"/>
<line x1="138.9" y1="328.0" x2="138.9" y2="330.7" stroke="#F6465D" stroke-width="1"/>
<rect x="134.0" y="328.0" width="9.7" height="2.7" rx="1" fill="#F6465D"/>
<line x1="155.0" y1="330.7" x2="155.0" y2="332.0" stroke="#F6465D" stroke-width="1"/>
<rect x="150.1" y="330.7" width="9.7" height="1.4" rx="1" fill="#F6465D"/>
<line x1="171.1" y1="332.0" x2="171.1" y2="332.0" stroke="#0ECB81" stroke-width="1"/>
<rect x="166.3" y="332.0" width="9.7" height="1.4" rx="1" fill="#0ECB81"/>
<line x1="187.2" y1="332.0" x2="187.2" y2="332.0" stroke="#0ECB81" stroke-width="1"/>
<rect x="182.4" y="332.0" width="9.7" height="1.4" rx="1" fill="#0ECB81"/>
<line x1="203.3" y1="332.0" x2="203.3" y2="332.0" stroke="#0ECB81" stroke-width="1"/>
<rect x="198.5" y="332.0" width="9.7" height="1.4" rx="1" fill="#0ECB81"/>
<line x1="219.4" y1="332.0" x2="219.4" y2="332.0" stroke="#0ECB81" stroke-width="1"/>
<rect x="214.6" y="332.0" width="9.7" height="1.4" rx="1" fill="#0ECB81"/>
<line x1="235.6" y1="332.0" x2="235.6" y2="332.0" stroke="#0ECB81" stroke-width="1"/>
<rect x="230.7" y="332.0" width="9.7" height="1.4" rx="1" fill="#0ECB81"/>
<line x1="251.7" y1="332.0" x2="251.7" y2="332.0" stroke="#0ECB81" stroke-width="1"/>
<rect x="246.8" y="332.0" width="9.7" height="1.4" rx="1" fill="#0ECB81"/>
<line x1="267.8" y1="332.0" x2="267.8" y2="332.0" stroke="#0ECB81" stroke-width="1"/>
<rect x="263.0" y="332.0" width="9.7" height="1.4" rx="1" fill="#0ECB81"/>
<line x1="283.9" y1="332.0" x2="283.9" y2="332.0" stroke="#0ECB81" stroke-width="1"/>
<rect x="279.1" y="332.0" width="9.7" height="1.4" rx="1" fill="#0ECB81"/>
<line x1="300.0" y1="332.0" x2="300.0" y2="332.0" stroke="#0ECB81" stroke-width="1"/>
<rect x="295.2" y="332.0" width="9.7" height="1.4" rx="1" fill="#0ECB81"/>
<line x1="316.1" y1="330.7" x2="316.1" y2="332.0" stroke="#0ECB81" stroke-width="1"/>
<rect x="311.3" y="330.7" width="9.7" height="1.4" rx="1" fill="#0ECB81"/>
<line x1="332.3" y1="286.3" x2="332.3" y2="330.7" stroke="#0ECB81" stroke-width="1"/>
<rect x="327.4" y="286.3" width="9.7" height="44.3" rx="1" fill="#0ECB81"/>
<line x1="348.4" y1="286.3" x2="348.4" y2="299.8" stroke="#F6465D" stroke-width="1"/>
<rect x="343.5" y="286.3" width="9.7" height="13.4" rx="1" fill="#F6465D"/>
<line x1="364.5" y1="299.8" x2="364.5" y2="307.8" stroke="#F6465D" stroke-width="1"/>
<rect x="359.6" y="299.8" width="9.7" height="8.1" rx="1" fill="#F6465D"/>
<line x1="380.6" y1="263.5" x2="380.6" y2="307.8" stroke="#0ECB81" stroke-width="1"/>
<rect x="375.8" y="263.5" width="9.7" height="44.3" rx="1" fill="#0ECB81"/>
<line x1="396.7" y1="255.5" x2="396.7" y2="263.5" stroke="#0ECB81" stroke-width="1"/>
<rect x="391.9" y="255.5" width="9.7" height="8.1" rx="1" fill="#0ECB81"/>
<line x1="412.8" y1="255.5" x2="412.8" y2="293.1" stroke="#F6465D" stroke-width="1"/>
<rect x="408.0" y="255.5" width="9.7" height="37.6" rx="1" fill="#F6465D"/>
<line x1="428.9" y1="293.1" x2="428.9" y2="301.1" stroke="#F6465D" stroke-width="1"/>
<rect x="424.1" y="293.1" width="9.7" height="8.1" rx="1" fill="#F6465D"/>
<line x1="445.1" y1="232.6" x2="445.1" y2="301.1" stroke="#0ECB81" stroke-width="1"/>
<rect x="440.2" y="232.6" width="9.7" height="68.5" rx="1" fill="#0ECB81"/>
<line x1="461.2" y1="232.6" x2="461.2" y2="254.1" stroke="#F6465D" stroke-width="1"/>
<rect x="456.3" y="232.6" width="9.7" height="21.5" rx="1" fill="#F6465D"/>
<line x1="477.3" y1="254.1" x2="477.3" y2="301.1" stroke="#F6465D" stroke-width="1"/>
<rect x="472.5" y="254.1" width="9.7" height="47.0" rx="1" fill="#F6465D"/>
<line x1="493.4" y1="301.1" x2="493.4" y2="301.1" stroke="#0ECB81" stroke-width="1"/>
<rect x="488.6" y="301.1" width="9.7" height="1.4" rx="1" fill="#0ECB81"/>
<line x1="509.5" y1="266.2" x2="509.5" y2="301.1" stroke="#0ECB81" stroke-width="1"/>
<rect x="504.7" y="266.2" width="9.7" height="34.9" rx="1" fill="#0ECB81"/>
<line x1="525.6" y1="266.2" x2="525.6" y2="293.1" stroke="#F6465D" stroke-width="1"/>
<rect x="520.8" y="266.2" width="9.7" height="26.9" rx="1" fill="#F6465D"/>
<line x1="541.8" y1="293.1" x2="541.8" y2="330.7" stroke="#F6465D" stroke-width="1"/>
<rect x="536.9" y="293.1" width="9.7" height="37.6" rx="1" fill="#F6465D"/>
<line x1="557.9" y1="318.6" x2="557.9" y2="330.7" stroke="#0ECB81" stroke-width="1"/>
<rect x="553.0" y="318.6" width="9.7" height="12.1" rx="1" fill="#0ECB81"/>
<line x1="574.0" y1="318.6" x2="574.0" y2="329.3" stroke="#F6465D" stroke-width="1"/>
<rect x="569.1" y="318.6" width="9.7" height="10.7" rx="1" fill="#F6465D"/>
<line x1="590.1" y1="294.4" x2="590.1" y2="329.3" stroke="#0ECB81" stroke-width="1"/>
<rect x="585.3" y="294.4" width="9.7" height="34.9" rx="1" fill="#0ECB81"/>
<line x1="606.2" y1="294.4" x2="606.2" y2="298.4" stroke="#F6465D" stroke-width="1"/>
<rect x="601.4" y="294.4" width="9.7" height="4.0" rx="1" fill="#F6465D"/>
<line x1="622.3" y1="282.3" x2="622.3" y2="298.4" stroke="#0ECB81" stroke-width="1"/>
<rect x="617.5" y="282.3" width="9.7" height="16.1" rx="1" fill="#0ECB81"/>
<line x1="638.4" y1="282.3" x2="638.4" y2="282.3" stroke="#0ECB81" stroke-width="1"/>
<rect x="633.6" y="282.3" width="9.7" height="1.4" rx="1" fill="#0ECB81"/>
<line x1="654.6" y1="236.7" x2="654.6" y2="282.3" stroke="#0ECB81" stroke-width="1"/>
<rect x="649.7" y="236.7" width="9.7" height="45.7" rx="1" fill="#0ECB81"/>
<line x1="670.7" y1="236.7" x2="670.7" y2="247.4" stroke="#F6465D" stroke-width="1"/>
<rect x="665.8" y="236.7" width="9.7" height="10.7" rx="1" fill="#F6465D"/>
<line x1="686.8" y1="247.4" x2="686.8" y2="271.6" stroke="#F6465D" stroke-width="1"/>
<rect x="682.0" y="247.4" width="9.7" height="24.2" rx="1" fill="#F6465D"/>
<line x1="702.9" y1="182.9" x2="702.9" y2="271.6" stroke="#0ECB81" stroke-width="1"/>
<rect x="698.1" y="182.9" width="9.7" height="88.6" rx="1" fill="#0ECB81"/>
<line x1="719.0" y1="182.9" x2="719.0" y2="254.1" stroke="#F6465D" stroke-width="1"/>
<rect x="714.2" y="182.9" width="9.7" height="71.2" rx="1" fill="#F6465D"/>
<line x1="735.1" y1="254.1" x2="735.1" y2="285.0" stroke="#F6465D" stroke-width="1"/>
<rect x="730.3" y="254.1" width="9.7" height="30.9" rx="1" fill="#F6465D"/>
<line x1="751.2" y1="285.0" x2="751.2" y2="287.7" stroke="#F6465D" stroke-width="1"/>
<rect x="746.4" y="285.0" width="9.7" height="2.7" rx="1" fill="#F6465D"/>
<line x1="767.4" y1="153.4" x2="767.4" y2="287.7" stroke="#0ECB81" stroke-width="1"/>
<rect x="762.5" y="153.4" width="9.7" height="134.3" rx="1" fill="#0ECB81"/>
<line x1="783.5" y1="153.4" x2="783.5" y2="184.3" stroke="#F6465D" stroke-width="1"/>
<rect x="778.6" y="153.4" width="9.7" height="30.9" rx="1" fill="#F6465D"/>
<line x1="799.6" y1="184.3" x2="799.6" y2="260.8" stroke="#F6465D" stroke-width="1"/>
<rect x="794.8" y="184.3" width="9.7" height="76.5" rx="1" fill="#F6465D"/>
<line x1="815.7" y1="259.5" x2="815.7" y2="260.8" stroke="#0ECB81" stroke-width="1"/>
<rect x="810.9" y="259.5" width="9.7" height="1.4" rx="1" fill="#0ECB81"/>
<line x1="831.8" y1="119.8" x2="831.8" y2="259.5" stroke="#0ECB81" stroke-width="1"/>
<rect x="827.0" y="119.8" width="9.7" height="139.7" rx="1" fill="#0ECB81"/>
<line x1="847.9" y1="119.8" x2="847.9" y2="250.1" stroke="#F6465D" stroke-width="1"/>
<rect x="843.1" y="119.8" width="9.7" height="130.3" rx="1" fill="#F6465D"/>
<text x="26" y="355" font-family="ui-monospace,'SF Mono',SFMono-Regular,Menlo,Consolas,monospace" font-size="10" letter-spacing="0.5" fill="#6E7887">VOL <tspan fill="#F6465D">61</tspan></text>
<rect x="21.2" y="400.0" width="9.7" height="1.0" rx="1" fill="#0ECB81" opacity="0.42"/>
<rect x="37.3" y="400.0" width="9.7" height="1.0" rx="1" fill="#0ECB81" opacity="0.42"/>
<rect x="53.5" y="400.0" width="9.7" height="1.0" rx="1" fill="#0ECB81" opacity="0.42"/>
<rect x="69.6" y="400.0" width="9.7" height="1.0" rx="1" fill="#0ECB81" opacity="0.42"/>
<rect x="85.7" y="399.5" width="9.7" height="1.0" rx="1" fill="#0ECB81" opacity="0.42"/>
<rect x="101.8" y="399.0" width="9.7" height="1.0" rx="1" fill="#0ECB81" opacity="0.42"/>
<rect x="117.9" y="399.2" width="9.7" height="1.0" rx="1" fill="#F6465D" opacity="0.42"/>
<rect x="134.0" y="399.7" width="9.7" height="1.0" rx="1" fill="#F6465D" opacity="0.42"/>
<rect x="150.1" y="400.0" width="9.7" height="1.0" rx="1" fill="#F6465D" opacity="0.42"/>
<rect x="166.3" y="400.0" width="9.7" height="1.0" rx="1" fill="#0ECB81" opacity="0.42"/>
<rect x="182.4" y="400.0" width="9.7" height="1.0" rx="1" fill="#0ECB81" opacity="0.42"/>
<rect x="198.5" y="400.0" width="9.7" height="1.0" rx="1" fill="#0ECB81" opacity="0.42"/>
<rect x="214.6" y="400.0" width="9.7" height="1.0" rx="1" fill="#0ECB81" opacity="0.42"/>
<rect x="230.7" y="400.0" width="9.7" height="1.0" rx="1" fill="#0ECB81" opacity="0.42"/>
<rect x="246.8" y="400.0" width="9.7" height="1.0" rx="1" fill="#0ECB81" opacity="0.42"/>
<rect x="263.0" y="400.0" width="9.7" height="1.0" rx="1" fill="#0ECB81" opacity="0.42"/>
<rect x="279.1" y="400.0" width="9.7" height="1.0" rx="1" fill="#0ECB81" opacity="0.42"/>
<rect x="295.2" y="400.0" width="9.7" height="1.0" rx="1" fill="#0ECB81" opacity="0.42"/>
<rect x="311.3" y="399.7" width="9.7" height="1.0" rx="1" fill="#0ECB81" opacity="0.42"/>
<rect x="327.4" y="391.4" width="9.7" height="8.6" rx="1" fill="#0ECB81" opacity="0.42"/>
<rect x="343.5" y="393.9" width="9.7" height="6.1" rx="1" fill="#F6465D" opacity="0.42"/>
<rect x="359.6" y="395.4" width="9.7" height="4.6" rx="1" fill="#F6465D" opacity="0.42"/>
<rect x="375.8" y="387.1" width="9.7" height="12.9" rx="1" fill="#0ECB81" opacity="0.42"/>
<rect x="391.9" y="385.6" width="9.7" height="14.4" rx="1" fill="#0ECB81" opacity="0.42"/>
<rect x="408.0" y="392.7" width="9.7" height="7.3" rx="1" fill="#F6465D" opacity="0.42"/>
<rect x="424.1" y="394.2" width="9.7" height="5.8" rx="1" fill="#F6465D" opacity="0.42"/>
<rect x="440.2" y="381.3" width="9.7" height="18.7" rx="1" fill="#0ECB81" opacity="0.42"/>
<rect x="456.3" y="385.3" width="9.7" height="14.7" rx="1" fill="#F6465D" opacity="0.42"/>
<rect x="472.5" y="394.2" width="9.7" height="5.8" rx="1" fill="#F6465D" opacity="0.42"/>
<rect x="488.6" y="394.2" width="9.7" height="5.8" rx="1" fill="#0ECB81" opacity="0.42"/>
<rect x="504.7" y="387.6" width="9.7" height="12.4" rx="1" fill="#0ECB81" opacity="0.42"/>
<rect x="520.8" y="392.7" width="9.7" height="7.3" rx="1" fill="#F6465D" opacity="0.42"/>
<rect x="536.9" y="399.7" width="9.7" height="1.0" rx="1" fill="#F6465D" opacity="0.42"/>
<rect x="553.0" y="397.5" width="9.7" height="2.5" rx="1" fill="#0ECB81" opacity="0.42"/>
<rect x="569.1" y="399.5" width="9.7" height="1.0" rx="1" fill="#F6465D" opacity="0.42"/>
<rect x="585.3" y="392.9" width="9.7" height="7.1" rx="1" fill="#0ECB81" opacity="0.42"/>
<rect x="601.4" y="393.7" width="9.7" height="6.3" rx="1" fill="#F6465D" opacity="0.42"/>
<rect x="617.5" y="390.6" width="9.7" height="9.4" rx="1" fill="#0ECB81" opacity="0.42"/>
<rect x="633.6" y="390.6" width="9.7" height="9.4" rx="1" fill="#0ECB81" opacity="0.42"/>
<rect x="649.7" y="382.0" width="9.7" height="18.0" rx="1" fill="#0ECB81" opacity="0.42"/>
<rect x="665.8" y="384.1" width="9.7" height="15.9" rx="1" fill="#F6465D" opacity="0.42"/>
<rect x="682.0" y="388.6" width="9.7" height="11.4" rx="1" fill="#F6465D" opacity="0.42"/>
<rect x="698.1" y="371.9" width="9.7" height="28.1" rx="1" fill="#0ECB81" opacity="0.42"/>
<rect x="714.2" y="385.3" width="9.7" height="14.7" rx="1" fill="#F6465D" opacity="0.42"/>
<rect x="730.3" y="391.1" width="9.7" height="8.9" rx="1" fill="#F6465D" opacity="0.42"/>
<rect x="746.4" y="391.6" width="9.7" height="8.4" rx="1" fill="#F6465D" opacity="0.42"/>
<rect x="762.5" y="366.3" width="9.7" height="33.7" rx="1" fill="#0ECB81" opacity="0.42"/>
<rect x="778.6" y="372.2" width="9.7" height="27.8" rx="1" fill="#F6465D" opacity="0.42"/>
<rect x="794.8" y="386.6" width="9.7" height="13.4" rx="1" fill="#F6465D" opacity="0.42"/>
<rect x="810.9" y="386.3" width="9.7" height="13.7" rx="1" fill="#0ECB81" opacity="0.42"/>
<rect x="827.0" y="360.0" width="9.7" height="40.0" rx="1" fill="#0ECB81" opacity="0.42"/>
<rect x="843.1" y="384.6" width="9.7" height="15.4" rx="1" fill="#F6465D" opacity="0.42"/>
<text x="90.5" y="418" text-anchor="middle" font-family="ui-monospace,'SF Mono',SFMono-Regular,Menlo,Consolas,monospace" font-size="10" fill="#6E7887">OCT</text>
<text x="155.0" y="418" text-anchor="middle" font-family="ui-monospace,'SF Mono',SFMono-Regular,Menlo,Consolas,monospace" font-size="10" fill="#6E7887">NOV</text>
<text x="219.4" y="418" text-anchor="middle" font-family="ui-monospace,'SF Mono',SFMono-Regular,Menlo,Consolas,monospace" font-size="10" fill="#6E7887">DEC</text>
<text x="300.0" y="418" text-anchor="middle" font-family="ui-monospace,'SF Mono',SFMono-Regular,Menlo,Consolas,monospace" font-size="10" fill="#6E7887">JAN</text>
<text x="364.5" y="418" text-anchor="middle" font-family="ui-monospace,'SF Mono',SFMono-Regular,Menlo,Consolas,monospace" font-size="10" fill="#6E7887">FEB</text>
<text x="428.9" y="418" text-anchor="middle" font-family="ui-monospace,'SF Mono',SFMono-Regular,Menlo,Consolas,monospace" font-size="10" fill="#6E7887">MAR</text>
<text x="509.5" y="418" text-anchor="middle" font-family="ui-monospace,'SF Mono',SFMono-Regular,Menlo,Consolas,monospace" font-size="10" fill="#6E7887">APR</text>
<text x="574.0" y="418" text-anchor="middle" font-family="ui-monospace,'SF Mono',SFMono-Regular,Menlo,Consolas,monospace" font-size="10" fill="#6E7887">MAY</text>
<text x="638.4" y="418" text-anchor="middle" font-family="ui-monospace,'SF Mono',SFMono-Regular,Menlo,Consolas,monospace" font-size="10" fill="#6E7887">JUN</text>
<text x="719.0" y="418" text-anchor="middle" font-family="ui-monospace,'SF Mono',SFMono-Regular,Menlo,Consolas,monospace" font-size="10" fill="#6E7887">JUL</text>
<text x="783.5" y="418" text-anchor="middle" font-family="ui-monospace,'SF Mono',SFMono-Regular,Menlo,Consolas,monospace" font-size="10" fill="#6E7887">AUG</text>
</svg>