<svg width="920" height="430" viewBox="0 0 920 430" xmlns="http://www.w3.org/2000/svg">
<rect x="0.5" y="0.5" width="919" height="429" rx="14" fill="#0B0E11" stroke="#1B2130"/>
<text x="26" y="34" font-family="ui-sans-serif,system-ui,-apple-system,'Segoe UI',Roboto,sans-serif" font-size="13" font-weight="700" letter-spacing="1.2" fill="#EAECEF">STARLASH7 · COMMITS<tspan fill="#6E7887" font-weight="500" letter-spacing="0.6">  1D · SEP 2026</tspan></text>
<text x="26" y="70" font-family="ui-monospace,'SF Mono',SFMono-Regular,Menlo,Consolas,monospace" font-size="32" font-weight="800" fill="#F6465D" letter-spacing="-0.5">3</text>
<rect x="60" y="50" width="101" height="24" rx="6" fill="#F6465D" opacity="0.14"/>
<text x="111" y="66" text-anchor="middle" font-family="ui-monospace,'SF Mono',SFMono-Regular,Menlo,Consolas,monospace" font-size="12" font-weight="700" fill="#F6465D">-3 (-50.0%)</text>
<text x="844" y="34" text-anchor="end" font-family="ui-monospace,'SF Mono',SFMono-Regular,Menlo,Consolas,monospace" font-size="11" letter-spacing="0.3"><tspan fill="#6E7887">O</tspan> <tspan fill="#F6465D">6</tspan>  <tspan fill="#6E7887">H</tspan> <tspan fill="#F6465D">6</tspan>  <tspan fill="#6E7887">L</tspan> <tspan fill="#F6465D">3</tspan>  <tspan fill="#6E7887">C</tspan> <tspan fill="#F6465D">3</tspan></text>
<text x="844" y="54" text-anchor="end" font-family="ui-monospace,'SF Mono',SFMono-Regular,Menlo,Consolas,monospace" font-size="11" letter-spacing="0.3"><tspan fill="#6E7887">MTD</tspan> <tspan fill="#EAECEF">79</tspan>  <tspan fill="#6E7887">CANDLES</tspan> <tspan fill="#EAECEF">12</tspan></text>
<line x1="18" y1="82" x2="902" y2="82" stroke="#1B2130" stroke-width="1"/>
<text x="437.0" y="222.0" text-anchor="middle" font-family="ui-sans-serif,system-ui,-apple-system,'Segoe UI',Roboto,sans-serif" font-size="38" font-weight="800" letter-spacing="6" fill="#EAECEF" opacity="0.035">STARLASH7</text>
<line x1="18" y1="271.0" x2="856" y2="271.0" stroke="#161C26" stroke-width="1"/>
<text x="866" y="274.5" font-family="ui-monospace,'SF Mono',SFMono-Regular,Menlo,Consolas,monospace" font-size="10.5" fill="#6E7887">10</text>
<line x1="18" y1="210.0" x2="856" y2="210.0" stroke="#161C26" stroke-width="1"/>
<text x="866" y="213.5" font-family="ui-monospace,'SF Mono',SFMono-Regular,Menlo,Consolas,monospace" font-size="10.5" fill="#6E7887">20</text>
<line x1="18" y1="149.0" x2="856" y2="149.0" stroke="#161C26" stroke-width="1"/>
<text x="866" y="152.5" font-family="ui-monospace,'SF Mono',SFMono-Regular,Menlo,Consolas,monospace" font-size="10.5" fill="#6E7887">29</text>
<line x1="18" y1="88.0" x2="856" y2="88.0" stroke="#161C26" stroke-width="1"/>
<text x="866" y="91.5" font-family="ui-monospace,'SF Mono',SFMono-Regular,Menlo,Consolas,monospace" font-size="10.5" fill="#6E7887">39</text>
<line x1="856" y1="82" x2="856" y2="400" stroke="#242B38" stroke-width="1"/>
<line x1="18" y1="313.3" x2="856" y2="313.3" stroke="#F6465D" stroke-width="1" stroke-dasharray="2 4" opacity="0.55"/>
<rect x="860" y="303.3" width="50" height="20" rx="5" fill="#F6465D"/>
<text x="885.0" y="317.1" text-anchor="middle" font-family="ui-monospace,'SF Mono',SFMono-Regular,Menlo,Consolas,monospace" font-size="11.5" font-weight="800" fill="#0B0E11">3</text>
<line x1="52.9" y1="119.8" x2="52.9" y2="194.7" stroke="#F6465D" stroke-width="1"/>
<rect x="46.4" y="119.8" width="13.0" height="74.9" rx="1" fill="#F6465D"/>
<line x1="122.8" y1="194.7" x2="122.8" y2="219.7" stroke="#F6465D" stroke-width="1"/>
<rect x="116.2" y="194.7" width="13.0" height="25.0" rx="1" fill="#F6465D"/>
<line x1="192.6" y1="219.7" x2="192.6" y2="232.2" stroke="#F6465D" stroke-width="1"/>
<rect x="186.1" y="219.7" width="13.0" height="12.5" rx="1" fill="#F6465D"/>
<line x1="262.4" y1="232.2" x2="262.4" y2="319.5" stroke="#F6465D" stroke-width="1"/>
<rect x="255.9" y="232.2" width="13.0" height="87.4" rx="1" fill="#F6465D"/>
<line x1="332.2" y1="288.3" x2="332.2" y2="319.5" stroke="#0ECB81" stroke-width="1"/>
<rect x="325.8" y="288.3" width="13.0" height="31.2" rx="1" fill="#0ECB81"/>
<line x1="402.1" y1="288.3" x2="402.1" y2="319.5" stroke="#F6465D" stroke-width="1"/>
<rect x="395.6" y="288.3" width="13.0" height="31.2" rx="1" fill="#F6465D"/>
<line x1="471.9" y1="319.5" x2="471.9" y2="332.0" stroke="#F6465D" stroke-width="1"/>
<rect x="465.4" y="319.5" width="13.0" height="12.5" rx="1" fill="#F6465D"/>
<line x1="541.8" y1="332.0" x2="541.8" y2="332.0" stroke="#0ECB81" stroke-width="1"/>
<rect x="535.2" y="332.0" width="13.0" height="1.4" rx="1" fill="#0ECB81"/>
<line x1="611.6" y1="313.3" x2="611.6" y2="332.0" stroke="#0ECB81" stroke-width="1"/>
<rect x="605.1" y="313.3" width="13.0" height="18.7" rx="1" fill="#0ECB81"/>
<line x1="681.4" y1="313.3" x2="681.4" y2="332.0" stroke="#F6465D" stroke-width="1"/>
<rect x="674.9" y="313.3" width="13.0" height="18.7" rx="1" fill="#F6465D"/>
<line x1="751.2" y1="294.6" x2="751.2" y2="332.0" stroke="#0ECB81" stroke-width="1"/>
<rect x="744.7" y="294.6" width="13.0" height="37.4" rx="1" fill="#0ECB81"/>
<line x1="821.1" y1="294.6" x2="821.1" y2="313.3" stroke="#F6465D" stroke-width="1"/>
<rect x="814.6" y="294.6" width="13.0" height="18.7" rx="1" fill="#F6465D"/>
<text x="26" y="355" font-family="ui-monospace,'SF Mono',SFMono-Regular,Menlo,Consolas,monospace" font-size="10" letter-spacing="0.5" fill="#6E7887">VOL <tspan fill="#F6465D">3</tspan></text>
<rect x="46.4" y="360.0" width="13.0" height="40.0" rx="1" fill="#F6465D" opacity="0.42"/>
<rect x="116.2" y="367.3" width="13.0" height="32.7" rx="1" fill="#F6465D" opacity="0.42"/>
<rect x="186.1" y="370.9" width="13.0" height="29.1" rx="1" fill="#F6465D" opacity="0.42"/>
<rect x="255.9" y="396.4" width="13.0" height="3.6" rx="1" fill="#F6465D" opacity="0.42"/>
<rect x="325.8" y="387.3" width="13.0" height="12.7" rx="1" fill="#0ECB81" opacity="0.42"/>
<rect x="395.6" y="396.4" width="13.0" height="3.6" rx="1" fill="#F6465D" opacity="0.42"/>
<rect x="465.4" y="400.0" width="13.0" height="1.0" rx="1" fill="#F6465D" opacity="0.42"/>
<rect x="535.2" y="400.0" width="13.0" height="1.0" rx="1" fill="#0ECB81" opacity="0.42"/>
<rect x="605.1" y="394.5" width="13.0" height="5.5" rx="1" fill="#0ECB81" opacity="0.42"/>
<rect x="674.9" y="400.0" width="13.0" height="1.0" rx="1" fill="#F6465D" opacity="0.42"/>
<rect x="744.7" y="389.1" width="13.0" height="10.9" rx="1" fill="#0ECB81" opacity="0.42"/>
<rect x="814.6" y="394.5" width="13.0" height="5.5" rx="1" fill="#F6465D" opacity="0.42"/>
<text x="52.9" y="418" text-anchor="middle" font-family="ui-monospace,'SF Mono',SFMono-Regular,Menlo,Consolas,monospace" font-size="10" fill="#6E7887">01</text>
<text x="332.2" y="418" text-anchor="middle" font-family="ui-monospace,'SF Mono',SFMono-Regular,Menlo,Consolas,monospace" font-size="10" fill="#6E7887">05</text>
<text x="681.4" y="418" text-anchor="middle" font-family="ui-monospace,'SF Mono',SFMono-Regular,Menlo,Consolas,monospace" font-size="10" fill="#6E7887">10</text>
</svg>