<svg width="920" height="430" viewBox="0 0 920 430" xmlns="http://www.w3.org/2000/svg">
<rect x="0.5" y="0.5" width="919" height="429" rx="14" fill="#0B0E11" stroke="#1B2130"/>
<text x="26" y="34" font-family="ui-sans-serif,system-ui,-apple-system,'Segoe UI',Roboto,sans-serif" font-size="13" font-weight="700" letter-spacing="1.2" fill="#EAECEF">STARLASH7 · COMMITS<tspan fill="#6E7887" font-weight="500" letter-spacing="0.6">  1D · AUG 2026</tspan></text>
<text x="26" y="70" font-family="ui-monospace,'SF Mono',SFMono-Regular,Menlo,Consolas,monospace" font-size="32" font-weight="800" fill="#0ECB81" letter-spacing="-0.5">13</text>
<rect x="80" y="50" width="101" height="24" rx="6" fill="#0ECB81" opacity="0.14"/>
<text x="131" y="66" text-anchor="middle" font-family="ui-monospace,'SF Mono',SFMono-Regular,Menlo,Consolas,monospace" font-size="12" font-weight="700" fill="#0ECB81">+13 (+0.0%)</text>
<text x="844" y="34" text-anchor="end" font-family="ui-monospace,'SF Mono',SFMono-Regular,Menlo,Consolas,monospace" font-size="11" letter-spacing="0.3"><tspan fill="#6E7887">O</tspan> <tspan fill="#0ECB81">0</tspan>  <tspan fill="#6E7887">H</tspan> <tspan fill="#0ECB81">13</tspan>  <tspan fill="#6E7887">L</tspan> <tspan fill="#0ECB81">0</tspan>  <tspan fill="#6E7887">C</tspan> <tspan fill="#0ECB81">13</tspan></text>
<text x="844" y="54" text-anchor="end" font-family="ui-monospace,'SF Mono',SFMono-Regular,Menlo,Consolas,monospace" font-size="11" letter-spacing="0.3"><tspan fill="#6E7887">MTD</tspan> <tspan fill="#EAECEF">28</tspan>  <tspan fill="#6E7887">CANDLES</tspan> <tspan fill="#EAECEF">4</tspan></text>
<line x1="18" y1="82" x2="902" y2="82" stroke="#1B2130" stroke-width="1"/>
<text x="437.0" y="222.0" text-anchor="middle" font-family="ui-sans-serif,system-ui,-apple-system,'Segoe UI',Roboto,sans-serif" font-size="38" font-weight="800" letter-spacing="6" fill="#EAECEF" opacity="0.035">STARLASH7</text>
<line x1="18" y1="271.0" x2="856" y2="271.0" stroke="#161C26" stroke-width="1"/>
<text x="866" y="274.5" font-family="ui-monospace,'SF Mono',SFMono-Regular,Menlo,Consolas,monospace" font-size="10.5" fill="#6E7887">5</text>
<line x1="18" y1="210.0" x2="856" y2="210.0" stroke="#161C26" stroke-width="1"/>
<text x="866" y="213.5" font-family="ui-monospace,'SF Mono',SFMono-Regular,Menlo,Consolas,monospace" font-size="10.5" fill="#6E7887">10</text>
<line x1="18" y1="149.0" x2="856" y2="149.0" stroke="#161C26" stroke-width="1"/>
<text x="866" y="152.5" font-family="ui-monospace,'SF Mono',SFMono-Regular,Menlo,Consolas,monospace" font-size="10.5" fill="#6E7887">15</text>
<line x1="18" y1="88.0" x2="856" y2="88.0" stroke="#161C26" stroke-width="1"/>
<text x="866" y="91.5" font-family="ui-monospace,'SF Mono',SFMono-Regular,Menlo,Consolas,monospace" font-size="10.5" fill="#6E7887">20</text>
<line x1="856" y1="82" x2="856" y2="400" stroke="#242B38" stroke-width="1"/>
<line x1="18" y1="169.7" x2="856" y2="169.7" stroke="#0ECB81" stroke-width="1" stroke-dasharray="2 4" opacity="0.55"/>
<rect x="860" y="159.7" width="50" height="20" rx="5" fill="#0ECB81"/>
<text x="885.0" y="173.5" text-anchor="middle" font-family="ui-monospace,'SF Mono',SFMono-Regular,Menlo,Consolas,monospace" font-size="11.5" font-weight="800" fill="#0B0E11">13</text>
<line x1="122.8" y1="119.8" x2="122.8" y2="332.0" stroke="#F6465D" stroke-width="1"/>
<rect x="116.2" y="119.8" width="13.0" height="212.2" rx="1" fill="#F6465D"/>
<line x1="332.2" y1="144.8" x2="332.2" y2="332.0" stroke="#0ECB81" stroke-width="1"/>
<rect x="325.8" y="144.8" width="13.0" height="187.2" rx="1" fill="#0ECB81"/>
<line x1="541.8" y1="144.8" x2="541.8" y2="332.0" stroke="#F6465D" stroke-width="1"/>
<rect x="535.2" y="144.8" width="13.0" height="187.2" rx="1" fill="#F6465D"/>
<line x1="751.2" y1="169.7" x2="751.2" y2="332.0" stroke="#0ECB81" stroke-width="1"/>
<rect x="744.8" y="169.7" width="13.0" height="162.3" rx="1" fill="#0ECB81"/>
<text x="26" y="355" font-family="ui-monospace,'SF Mono',SFMono-Regular,Menlo,Consolas,monospace" font-size="10" letter-spacing="0.5" fill="#6E7887">VOL <tspan fill="#0ECB81">13</tspan></text>
<rect x="116.2" y="400.0" width="13.0" height="1.0" rx="1" fill="#F6465D" opacity="0.42"/>
<rect x="325.8" y="360.0" width="13.0" height="40.0" rx="1" fill="#0ECB81" opacity="0.42"/>
<rect x="535.2" y="400.0" width="13.0" height="1.0" rx="1" fill="#F6465D" opacity="0.42"/>
<rect x="744.8" y="365.3" width="13.0" height="34.7" rx="1" fill="#0ECB81" opacity="0.42"/>
<text x="122.8" y="418" text-anchor="middle" font-family="ui-monospace,'SF Mono',SFMono-Regular,Menlo,Consolas,monospace" font-size="10" fill="#6E7887">01</text>
</svg>