<svg width="920" height="430" viewBox="0 0 920 430" xmlns="http://www.w3.org/2000/svg">
<rect x="0.5" y="0.5" width="919" height="429" rx="14" fill="#0B0E11" stroke="#1B2130"/>
<text x="26" y="34" font-family="ui-sans-serif,system-ui,-apple-system,'Segoe UI',Roboto,sans-serif" font-size="13" font-weight="700" letter-spacing="1.2" fill="#EAECEF">STARLASH7 · COMMITS<tspan fill="#6E7887" font-weight="500" letter-spacing="0.6">  1D · JUL 2026</tspan></text>
<text x="26" y="70" font-family="ui-monospace,'SF Mono',SFMono-Regular,Menlo,Consolas,monospace" font-size="32" font-weight="800" fill="#0ECB81" letter-spacing="-0.5">5</text>
<rect x="60" y="50" width="101" height="24" rx="6" fill="#0ECB81" opacity="0.14"/>
<text x="111" y="66" text-anchor="middle" font-family="ui-monospace,'SF Mono',SFMono-Regular,Menlo,Consolas,monospace" font-size="12" font-weight="700" fill="#0ECB81">+2 (+66.7%)</text>
<text x="844" y="34" text-anchor="end" font-family="ui-monospace,'SF Mono',SFMono-Regular,Menlo,Consolas,monospace" font-size="11" letter-spacing="0.3"><tspan fill="#6E7887">O</tspan> <tspan fill="#0ECB81">3</tspan>  <tspan fill="#6E7887">H</tspan> <tspan fill="#0ECB81">5</tspan>  <tspan fill="#6E7887">L</tspan> <tspan fill="#0ECB81">3</tspan>  <tspan fill="#6E7887">C</tspan> <tspan fill="#0ECB81">5</tspan></text>
<text x="844" y="54" text-anchor="end" font-family="ui-monospace,'SF Mono',SFMono-Regular,Menlo,Consolas,monospace" font-size="11" letter-spacing="0.3"><tspan fill="#6E7887">MTD</tspan> <tspan fill="#EAECEF">151</tspan>  <tspan fill="#6E7887">CANDLES</tspan> <tspan fill="#EAECEF">20</tspan></text>
<line x1="18" y1="82" x2="902" y2="82" stroke="#1B2130" stroke-width="1"/>
<text x="437.0" y="222.0" text-anchor="middle" font-family="ui-sans-serif,system-ui,-apple-system,'Segoe UI',Roboto,sans-serif" font-size="38" font-weight="800" letter-spacing="6" fill="#EAECEF" opacity="0.035">STARLASH7</text>
<line x1="18" y1="271.0" x2="856" y2="271.0" stroke="#161C26" stroke-width="1"/>
<text x="866" y="274.5" font-family="ui-monospace,'SF Mono',SFMono-Regular,Menlo,Consolas,monospace" font-size="10.5" fill="#6E7887">6</text>
<line x1="18" y1="210.0" x2="856" y2="210.0" stroke="#161C26" stroke-width="1"/>
<text x="866" y="213.5" font-family="ui-monospace,'SF Mono',SFMono-Regular,Menlo,Consolas,monospace" font-size="10.5" fill="#6E7887">12</text>
<line x1="18" y1="149.0" x2="856" y2="149.0" stroke="#161C26" stroke-width="1"/>
<text x="866" y="152.5" font-family="ui-monospace,'SF Mono',SFMono-Regular,Menlo,Consolas,monospace" font-size="10.5" fill="#6E7887">18</text>
<line x1="18" y1="88.0" x2="856" y2="88.0" stroke="#161C26" stroke-width="1"/>
<text x="866" y="91.5" font-family="ui-monospace,'SF Mono',SFMono-Regular,Menlo,Consolas,monospace" font-size="10.5" fill="#6E7887">24</text>
<line x1="856" y1="82" x2="856" y2="400" stroke="#242B38" stroke-width="1"/>
<line x1="18" y1="281.5" x2="856" y2="281.5" stroke="#0ECB81" stroke-width="1" stroke-dasharray="2 4" opacity="0.55"/>
<rect x="860" y="271.5" width="50" height="20" rx="5" fill="#0ECB81"/>
<text x="885.0" y="285.3" text-anchor="middle" font-family="ui-monospace,'SF Mono',SFMono-Regular,Menlo,Consolas,monospace" font-size="11.5" font-weight="800" fill="#0B0E11">5</text>
<line x1="39.0" y1="180.4" x2="39.0" y2="231.0" stroke="#F6465D" stroke-width="1"/>
<rect x="32.5" y="180.4" width="13.0" height="50.5" rx="1" fill="#F6465D"/>
<line x1="80.8" y1="210.8" x2="80.8" y2="231.0" stroke="#0ECB81" stroke-width="1"/>
<rect x="74.3" y="210.8" width="13.0" height="20.2" rx="1" fill="#0ECB81"/>
<line x1="122.8" y1="210.8" x2="122.8" y2="251.2" stroke="#F6465D" stroke-width="1"/>
<rect x="116.2" y="210.8" width="13.0" height="40.4" rx="1" fill="#F6465D"/>
<line x1="164.6" y1="251.2" x2="164.6" y2="281.5" stroke="#F6465D" stroke-width="1"/>
<rect x="158.1" y="251.2" width="13.0" height="30.3" rx="1" fill="#F6465D"/>
<line x1="206.5" y1="150.1" x2="206.5" y2="281.5" stroke="#0ECB81" stroke-width="1"/>
<rect x="200.0" y="150.1" width="13.0" height="131.3" rx="1" fill="#0ECB81"/>
<line x1="248.4" y1="150.1" x2="248.4" y2="150.1" stroke="#0ECB81" stroke-width="1"/>
<rect x="241.9" y="150.1" width="13.0" height="1.4" rx="1" fill="#0ECB81"/>
<line x1="290.3" y1="129.9" x2="290.3" y2="150.1" stroke="#0ECB81" stroke-width="1"/>
<rect x="283.8" y="129.9" width="13.0" height="20.2" rx="1" fill="#0ECB81"/>
<line x1="332.2" y1="129.9" x2="332.2" y2="241.1" stroke="#F6465D" stroke-width="1"/>
<rect x="325.8" y="129.9" width="13.0" height="111.1" rx="1" fill="#F6465D"/>
<line x1="374.1" y1="241.1" x2="374.1" y2="291.6" stroke="#F6465D" stroke-width="1"/>
<rect x="367.6" y="241.1" width="13.0" height="50.5" rx="1" fill="#F6465D"/>
<line x1="416.0" y1="271.4" x2="416.0" y2="291.6" stroke="#0ECB81" stroke-width="1"/>
<rect x="409.5" y="271.4" width="13.0" height="20.2" rx="1" fill="#0ECB81"/>
<line x1="457.9" y1="271.4" x2="457.9" y2="321.9" stroke="#F6465D" stroke-width="1"/>
<rect x="451.4" y="271.4" width="13.0" height="50.5" rx="1" fill="#F6465D"/>
<line x1="499.8" y1="321.9" x2="499.8" y2="332.0" stroke="#F6465D" stroke-width="1"/>
<rect x="493.3" y="321.9" width="13.0" height="10.1" rx="1" fill="#F6465D"/>
<line x1="541.8" y1="311.8" x2="541.8" y2="332.0" stroke="#0ECB81" stroke-width="1"/>
<rect x="535.2" y="311.8" width="13.0" height="20.2" rx="1" fill="#0ECB81"/>
<line x1="583.6" y1="119.8" x2="583.6" y2="311.8" stroke="#0ECB81" stroke-width="1"/>
<rect x="577.1" y="119.8" width="13.0" height="192.0" rx="1" fill="#0ECB81"/>
<line x1="625.6" y1="119.8" x2="625.6" y2="332.0" stroke="#F6465D" stroke-width="1"/>
<rect x="619.1" y="119.8" width="13.0" height="212.2" rx="1" fill="#F6465D"/>
<line x1="667.5" y1="291.6" x2="667.5" y2="332.0" stroke="#0ECB81" stroke-width="1"/>
<rect x="661.0" y="291.6" width="13.0" height="40.4" rx="1" fill="#0ECB81"/>
<line x1="709.4" y1="291.6" x2="709.4" y2="332.0" stroke="#F6465D" stroke-width="1"/>
<rect x="702.9" y="291.6" width="13.0" height="40.4" rx="1" fill="#F6465D"/>
<line x1="751.2" y1="281.5" x2="751.2" y2="332.0" stroke="#0ECB81" stroke-width="1"/>
<rect x="744.8" y="281.5" width="13.0" height="50.5" rx="1" fill="#0ECB81"/>
<line x1="793.1" y1="281.5" x2="793.1" y2="301.7" stroke="#F6465D" stroke-width="1"/>
<rect x="786.6" y="281.5" width="13.0" height="20.2" rx="1" fill="#F6465D"/>
<line x1="835.1" y1="281.5" x2="835.1" y2="301.7" stroke="#0ECB81" stroke-width="1"/>
<rect x="828.6" y="281.5" width="13.0" height="20.2" rx="1" fill="#0ECB81"/>
<text x="26" y="355" font-family="ui-monospace,'SF Mono',SFMono-Regular,Menlo,Consolas,monospace" font-size="10" letter-spacing="0.5" fill="#6E7887">VOL <tspan fill="#0ECB81">5</tspan></text>
<rect x="32.5" y="381.0" width="13.0" height="19.0" rx="1" fill="#F6465D" opacity="0.42"/>
<rect x="74.3" y="377.1" width="13.0" height="22.9" rx="1" fill="#0ECB81" opacity="0.42"/>
<rect x="116.2" y="384.8" width="13.0" height="15.2" rx="1" fill="#F6465D" opacity="0.42"/>
<rect x="158.1" y="390.5" width="13.0" height="9.5" rx="1" fill="#F6465D" opacity="0.42"/>
<rect x="200.0" y="365.7" width="13.0" height="34.3" rx="1" fill="#0ECB81" opacity="0.42"/>
<rect x="241.9" y="365.7" width="13.0" height="34.3" rx="1" fill="#0ECB81" opacity="0.42"/>
<rect x="283.8" y="361.9" width="13.0" height="38.1" rx="1" fill="#0ECB81" opacity="0.42"/>
<rect x="325.8" y="382.9" width="13.0" height="17.1" rx="1" fill="#F6465D" opacity="0.42"/>
<rect x="367.6" y="392.4" width="13.0" height="7.6" rx="1" fill="#F6465D" opacity="0.42"/>
<rect x="409.5" y="388.6" width="13.0" height="11.4" rx="1" fill="#0ECB81" opacity="0.42"/>
<rect x="451.4" y="398.1" width="13.0" height="1.9" rx="1" fill="#F6465D" opacity="0.42"/>
<rect x="493.3" y="400.0" width="13.0" height="1.0" rx="1" fill="#F6465D" opacity="0.42"/>
<rect x="535.2" y="396.2" width="13.0" height="3.8" rx="1" fill="#0ECB81" opacity="0.42"/>
<rect x="577.1" y="360.0" width="13.0" height="40.0" rx="1" fill="#0ECB81" opacity="0.42"/>
<rect x="619.1" y="400.0" width="13.0" height="1.0" rx="1" fill="#F6465D" opacity="0.42"/>
<rect x="661.0" y="392.4" width="13.0" height="7.6" rx="1" fill="#0ECB81" opacity="0.42"/>
<rect x="702.9" y="400.0" width="13.0" height="1.0" rx="1" fill="#F6465D" opacity="0.42"/>
<rect x="744.8" y="390.5" width="13.0" height="9.5" rx="1" fill="#0ECB81" opacity="0.42"/>
<rect x="786.6" y="394.3" width="13.0" height="5.7" rx="1" fill="#F6465D" opacity="0.42"/>
<rect x="828.6" y="390.5" width="13.0" height="9.5" rx="1" fill="#0ECB81" opacity="0.42"/>
<text x="39.0" y="418" text-anchor="middle" font-family="ui-monospace,'SF Mono',SFMono-Regular,Menlo,Consolas,monospace" font-size="10" fill="#6E7887">01</text>
<text x="206.5" y="418" text-anchor="middle" font-family="ui-monospace,'SF Mono',SFMono-Regular,Menlo,Consolas,monospace" font-size="10" fill="#6E7887">05</text>
<text x="416.0" y="418" text-anchor="middle" font-family="ui-monospace,'SF Mono',SFMono-Regular,Menlo,Consolas,monospace" font-size="10" fill="#6E7887">10</text>
<text x="625.6" y="418" text-anchor="middle" font-family="ui-monospace,'SF Mono',SFMono-Regular,Menlo,Consolas,monospace" font-size="10" fill="#6E7887">15</text>
<text x="835.1" y="418" text-anchor="middle" font-family="ui-monospace,'SF Mono',SFMono-Regular,Menlo,Consolas,monospace" font-size="10" fill="#6E7887">20</text>
</svg>