<svg width="920" height="430" viewBox="0 0 920 430" xmlns="http://www.w3.org/2000/svg">
<rect x="0.5" y="0.5" width="919" height="429" rx="14" fill="#0B0E11" stroke="#1B2130"/>
<text x="26" y="34" font-family="ui-sans-serif,system-ui,-apple-system,'Segoe UI',Roboto,sans-serif" font-size="13" font-weight="700" letter-spacing="1.2" fill="#EAECEF">STARLASH7 · COMMITS<tspan fill="#6E7887" font-weight="500" letter-spacing="0.6">  1D · JUL 2026</tspan></text>
<text x="26" y="70" font-family="ui-monospace,'SF Mono',SFMono-Regular,Menlo,Consolas,monospace" font-size="32" font-weight="800" fill="#0ECB81" letter-spacing="-0.5">17</text>
<rect x="80" y="50" width="116" height="24" rx="6" fill="#0ECB81" opacity="0.14"/>
<text x="138" y="66" text-anchor="middle" font-family="ui-monospace,'SF Mono',SFMono-Regular,Menlo,Consolas,monospace" font-size="12" font-weight="700" fill="#0ECB81">+15 (+750.0%)</text>
<text x="844" y="34" text-anchor="end" font-family="ui-monospace,'SF Mono',SFMono-Regular,Menlo,Consolas,monospace" font-size="11" letter-spacing="0.3"><tspan fill="#6E7887">O</tspan> <tspan fill="#0ECB81">2</tspan>  <tspan fill="#6E7887">H</tspan> <tspan fill="#0ECB81">17</tspan>  <tspan fill="#6E7887">L</tspan> <tspan fill="#0ECB81">2</tspan>  <tspan fill="#6E7887">C</tspan> <tspan fill="#0ECB81">17</tspan></text>
<text x="844" y="54" text-anchor="end" font-family="ui-monospace,'SF Mono',SFMono-Regular,Menlo,Consolas,monospace" font-size="11" letter-spacing="0.3"><tspan fill="#6E7887">MTD</tspan> <tspan fill="#EAECEF">129</tspan>  <tspan fill="#6E7887">CANDLES</tspan> <tspan fill="#EAECEF">14</tspan></text>
<line x1="18" y1="82" x2="902" y2="82" stroke="#1B2130" stroke-width="1"/>
<text x="437.0" y="222.0" text-anchor="middle" font-family="ui-sans-serif,system-ui,-apple-system,'Segoe UI',Roboto,sans-serif" font-size="38" font-weight="800" letter-spacing="6" fill="#EAECEF" opacity="0.035">STARLASH7</text>
<line x1="18" y1="271.0" x2="856" y2="271.0" stroke="#161C26" stroke-width="1"/>
<text x="866" y="274.5" font-family="ui-monospace,'SF Mono',SFMono-Regular,Menlo,Consolas,monospace" font-size="10.5" fill="#6E7887">6</text>
<line x1="18" y1="210.0" x2="856" y2="210.0" stroke="#161C26" stroke-width="1"/>
<text x="866" y="213.5" font-family="ui-monospace,'SF Mono',SFMono-Regular,Menlo,Consolas,monospace" font-size="10.5" fill="#6E7887">12</text>
<line x1="18" y1="149.0" x2="856" y2="149.0" stroke="#161C26" stroke-width="1"/>
<text x="866" y="152.5" font-family="ui-monospace,'SF Mono',SFMono-Regular,Menlo,Consolas,monospace" font-size="10.5" fill="#6E7887">17</text>
<line x1="18" y1="88.0" x2="856" y2="88.0" stroke="#161C26" stroke-width="1"/>
<text x="866" y="91.5" font-family="ui-monospace,'SF Mono',SFMono-Regular,Menlo,Consolas,monospace" font-size="10.5" fill="#6E7887">23</text>
<line x1="856" y1="82" x2="856" y2="400" stroke="#242B38" stroke-width="1"/>
<line x1="18" y1="151.7" x2="856" y2="151.7" stroke="#0ECB81" stroke-width="1" stroke-dasharray="2 4" opacity="0.55"/>
<rect x="860" y="141.7" width="50" height="20" rx="5" fill="#0ECB81"/>
<text x="885.0" y="155.5" text-anchor="middle" font-family="ui-monospace,'SF Mono',SFMono-Regular,Menlo,Consolas,monospace" font-size="11.5" font-weight="800" fill="#0B0E11">17</text>
<line x1="47.9" y1="172.9" x2="47.9" y2="225.9" stroke="#F6465D" stroke-width="1"/>
<rect x="41.4" y="172.9" width="13.0" height="53.0" rx="1" fill="#F6465D"/>
<line x1="107.8" y1="215.3" x2="107.8" y2="225.9" stroke="#0ECB81" stroke-width="1"/>
<rect x="101.3" y="215.3" width="13.0" height="10.6" rx="1" fill="#0ECB81"/>
<line x1="167.6" y1="215.3" x2="167.6" y2="247.1" stroke="#F6465D" stroke-width="1"/>
<rect x="161.1" y="215.3" width="13.0" height="31.8" rx="1" fill="#F6465D"/>
<line x1="227.5" y1="247.1" x2="227.5" y2="279.0" stroke="#F6465D" stroke-width="1"/>
<rect x="221.0" y="247.1" width="13.0" height="31.8" rx="1" fill="#F6465D"/>
<line x1="287.4" y1="141.0" x2="287.4" y2="279.0" stroke="#0ECB81" stroke-width="1"/>
<rect x="280.9" y="141.0" width="13.0" height="137.9" rx="1" fill="#0ECB81"/>
<line x1="347.2" y1="141.0" x2="347.2" y2="141.0" stroke="#0ECB81" stroke-width="1"/>
<rect x="340.7" y="141.0" width="13.0" height="1.4" rx="1" fill="#0ECB81"/>
<line x1="407.1" y1="119.8" x2="407.1" y2="141.0" stroke="#0ECB81" stroke-width="1"/>
<rect x="400.6" y="119.8" width="13.0" height="21.2" rx="1" fill="#0ECB81"/>
<line x1="466.9" y1="119.8" x2="466.9" y2="236.5" stroke="#F6465D" stroke-width="1"/>
<rect x="460.4" y="119.8" width="13.0" height="116.7" rx="1" fill="#F6465D"/>
<line x1="526.8" y1="236.5" x2="526.8" y2="289.6" stroke="#F6465D" stroke-width="1"/>
<rect x="520.3" y="236.5" width="13.0" height="53.0" rx="1" fill="#F6465D"/>
<line x1="586.6" y1="268.3" x2="586.6" y2="289.6" stroke="#0ECB81" stroke-width="1"/>
<rect x="580.1" y="268.3" width="13.0" height="21.2" rx="1" fill="#0ECB81"/>
<line x1="646.5" y1="268.3" x2="646.5" y2="321.4" stroke="#F6465D" stroke-width="1"/>
<rect x="640.0" y="268.3" width="13.0" height="53.0" rx="1" fill="#F6465D"/>
<line x1="706.4" y1="321.4" x2="706.4" y2="332.0" stroke="#F6465D" stroke-width="1"/>
<rect x="699.9" y="321.4" width="13.0" height="10.6" rx="1" fill="#F6465D"/>
<line x1="766.2" y1="310.8" x2="766.2" y2="332.0" stroke="#0ECB81" stroke-width="1"/>
<rect x="759.7" y="310.8" width="13.0" height="21.2" rx="1" fill="#0ECB81"/>
<line x1="826.1" y1="151.7" x2="826.1" y2="310.8" stroke="#0ECB81" stroke-width="1"/>
<rect x="819.6" y="151.7" width="13.0" height="159.1" rx="1" fill="#0ECB81"/>
<text x="26" y="355" font-family="ui-monospace,'SF Mono',SFMono-Regular,Menlo,Consolas,monospace" font-size="10" letter-spacing="0.5" fill="#6E7887">VOL <tspan fill="#0ECB81">17</tspan></text>
<rect x="41.4" y="380.0" width="13.0" height="20.0" rx="1" fill="#F6465D" opacity="0.42"/>
<rect x="101.3" y="378.0" width="13.0" height="22.0" rx="1" fill="#0ECB81" opacity="0.42"/>
<rect x="161.1" y="384.0" width="13.0" height="16.0" rx="1" fill="#F6465D" opacity="0.42"/>
<rect x="221.0" y="390.0" width="13.0" height="10.0" rx="1" fill="#F6465D" opacity="0.42"/>
<rect x="280.9" y="364.0" width="13.0" height="36.0" rx="1" fill="#0ECB81" opacity="0.42"/>
<rect x="340.7" y="364.0" width="13.0" height="36.0" rx="1" fill="#0ECB81" opacity="0.42"/>
<rect x="400.6" y="360.0" width="13.0" height="40.0" rx="1" fill="#0ECB81" opacity="0.42"/>
<rect x="460.4" y="382.0" width="13.0" height="18.0" rx="1" fill="#F6465D" opacity="0.42"/>
<rect x="520.3" y="392.0" width="13.0" height="8.0" rx="1" fill="#F6465D" opacity="0.42"/>
<rect x="580.1" y="388.0" width="13.0" height="12.0" rx="1" fill="#0ECB81" opacity="0.42"/>
<rect x="640.0" y="398.0" width="13.0" height="2.0" rx="1" fill="#F6465D" opacity="0.42"/>
<rect x="699.9" y="400.0" width="13.0" height="1.0" rx="1" fill="#F6465D" opacity="0.42"/>
<rect x="759.7" y="396.0" width="13.0" height="4.0" rx="1" fill="#0ECB81" opacity="0.42"/>
<rect x="819.6" y="366.0" width="13.0" height="34.0" rx="1" fill="#0ECB81" opacity="0.42"/>
<text x="47.9" y="418" text-anchor="middle" font-family="ui-monospace,'SF Mono',SFMono-Regular,Menlo,Consolas,monospace" font-size="10" fill="#6E7887">01</text>
<text x="287.4" y="418" text-anchor="middle" font-family="ui-monospace,'SF Mono',SFMono-Regular,Menlo,Consolas,monospace" font-size="10" fill="#6E7887">05</text>
<text x="586.6" y="418" text-anchor="middle" font-family="ui-monospace,'SF Mono',SFMono-Regular,Menlo,Consolas,monospace" font-size="10" fill="#6E7887">10</text>
</svg>