<svg width="920" height="430" viewBox="0 0 920 430" xmlns="http://www.w3.org/2000/svg">
<rect x="0.5" y="0.5" width="919" height="429" rx="14" fill="#0B0E11" stroke="#1B2130"/>
<text x="26" y="34" font-family="ui-sans-serif,system-ui,-apple-system,'Segoe UI',Roboto,sans-serif" font-size="13" font-weight="700" letter-spacing="1.2" fill="#EAECEF">STARLASH7 · COMMITS<tspan fill="#6E7887" font-weight="500" letter-spacing="0.6">  1D · OCT 2026</tspan></text>
<text x="26" y="70" font-family="ui-monospace,'SF Mono',SFMono-Regular,Menlo,Consolas,monospace" font-size="32" font-weight="800" fill="#F6465D" letter-spacing="-0.5">20</text>
<rect x="80" y="50" width="101" height="24" rx="6" fill="#F6465D" opacity="0.14"/>
<text x="131" y="66" text-anchor="middle" font-family="ui-monospace,'SF Mono',SFMono-Regular,Menlo,Consolas,monospace" font-size="12" font-weight="700" fill="#F6465D">-6 (-23.1%)</text>
<text x="844" y="34" text-anchor="end" font-family="ui-monospace,'SF Mono',SFMono-Regular,Menlo,Consolas,monospace" font-size="11" letter-spacing="0.3"><tspan fill="#6E7887">O</tspan> <tspan fill="#F6465D">26</tspan>  <tspan fill="#6E7887">H</tspan> <tspan fill="#F6465D">26</tspan>  <tspan fill="#6E7887">L</tspan> <tspan fill="#F6465D">20</tspan>  <tspan fill="#6E7887">C</tspan> <tspan fill="#F6465D">20</tspan></text>
<text x="844" y="54" text-anchor="end" font-family="ui-monospace,'SF Mono',SFMono-Regular,Menlo,Consolas,monospace" font-size="11" letter-spacing="0.3"><tspan fill="#6E7887">MTD</tspan> <tspan fill="#EAECEF">171</tspan>  <tspan fill="#6E7887">CANDLES</tspan> <tspan fill="#EAECEF">9</tspan></text>
<line x1="18" y1="82" x2="902" y2="82" stroke="#1B2130" stroke-width="1"/>
<text x="437.0" y="222.0" text-anchor="middle" font-family="ui-sans-serif,system-ui,-apple-system,'Segoe UI',Roboto,sans-serif" font-size="38" font-weight="800" letter-spacing="6" fill="#EAECEF" opacity="0.035">STARLASH7</text>
<line x1="18" y1="271.0" x2="856" y2="271.0" stroke="#161C26" stroke-width="1"/>
<text x="866" y="274.5" font-family="ui-monospace,'SF Mono',SFMono-Regular,Menlo,Consolas,monospace" font-size="10.5" fill="#6E7887">12</text>
<line x1="18" y1="210.0" x2="856" y2="210.0" stroke="#161C26" stroke-width="1"/>
<text x="866" y="213.5" font-family="ui-monospace,'SF Mono',SFMono-Regular,Menlo,Consolas,monospace" font-size="10.5" fill="#6E7887">23</text>
<line x1="18" y1="149.0" x2="856" y2="149.0" stroke="#161C26" stroke-width="1"/>
<text x="866" y="152.5" font-family="ui-monospace,'SF Mono',SFMono-Regular,Menlo,Consolas,monospace" font-size="10.5" fill="#6E7887">34</text>
<line x1="18" y1="88.0" x2="856" y2="88.0" stroke="#161C26" stroke-width="1"/>
<text x="866" y="91.5" font-family="ui-monospace,'SF Mono',SFMono-Regular,Menlo,Consolas,monospace" font-size="10.5" fill="#6E7887">46</text>
<line x1="856" y1="82" x2="856" y2="400" stroke="#242B38" stroke-width="1"/>
<line x1="18" y1="225.9" x2="856" y2="225.9" stroke="#F6465D" stroke-width="1" stroke-dasharray="2 4" opacity="0.55"/>
<rect x="860" y="215.9" width="50" height="20" rx="5" fill="#F6465D"/>
<text x="885.0" y="229.7" text-anchor="middle" font-family="ui-monospace,'SF Mono',SFMono-Regular,Menlo,Consolas,monospace" font-size="11.5" font-weight="800" fill="#0B0E11">20</text>
<line x1="64.6" y1="332.0" x2="64.6" y2="332.0" stroke="#0ECB81" stroke-width="1"/>
<rect x="58.1" y="332.0" width="13.0" height="1.4" rx="1" fill="#0ECB81"/>
<line x1="157.7" y1="326.7" x2="157.7" y2="332.0" stroke="#0ECB81" stroke-width="1"/>
<rect x="151.2" y="326.7" width="13.0" height="5.3" rx="1" fill="#0ECB81"/>
<line x1="250.8" y1="326.7" x2="250.8" y2="332.0" stroke="#F6465D" stroke-width="1"/>
<rect x="244.3" y="326.7" width="13.0" height="5.3" rx="1" fill="#F6465D"/>
<line x1="343.9" y1="135.7" x2="343.9" y2="332.0" stroke="#0ECB81" stroke-width="1"/>
<rect x="337.4" y="135.7" width="13.0" height="196.3" rx="1" fill="#0ECB81"/>
<line x1="437.0" y1="135.7" x2="437.0" y2="268.3" stroke="#F6465D" stroke-width="1"/>
<rect x="430.5" y="135.7" width="13.0" height="132.6" rx="1" fill="#F6465D"/>
<line x1="530.1" y1="146.3" x2="530.1" y2="268.3" stroke="#0ECB81" stroke-width="1"/>
<rect x="523.6" y="146.3" width="13.0" height="122.0" rx="1" fill="#0ECB81"/>
<line x1="623.2" y1="119.8" x2="623.2" y2="146.3" stroke="#0ECB81" stroke-width="1"/>
<rect x="616.7" y="119.8" width="13.0" height="26.5" rx="1" fill="#0ECB81"/>
<line x1="716.3" y1="119.8" x2="716.3" y2="194.1" stroke="#F6465D" stroke-width="1"/>
<rect x="709.8" y="119.8" width="13.0" height="74.3" rx="1" fill="#F6465D"/>
<line x1="809.4" y1="194.1" x2="809.4" y2="225.9" stroke="#F6465D" stroke-width="1"/>
<rect x="802.9" y="194.1" width="13.0" height="31.8" rx="1" fill="#F6465D"/>
<text x="26" y="355" font-family="ui-monospace,'SF Mono',SFMono-Regular,Menlo,Consolas,monospace" font-size="10" letter-spacing="0.5" fill="#6E7887">VOL <tspan fill="#F6465D">20</tspan></text>
<rect x="58.1" y="400.0" width="13.0" height="1.0" rx="1" fill="#0ECB81" opacity="0.42"/>
<rect x="151.2" y="399.0" width="13.0" height="1.0" rx="1" fill="#0ECB81" opacity="0.42"/>
<rect x="244.3" y="400.0" width="13.0" height="1.0" rx="1" fill="#F6465D" opacity="0.42"/>
<rect x="337.4" y="363.0" width="13.0" height="37.0" rx="1" fill="#0ECB81" opacity="0.42"/>
<rect x="430.5" y="388.0" width="13.0" height="12.0" rx="1" fill="#F6465D" opacity="0.42"/>
<rect x="523.6" y="365.0" width="13.0" height="35.0" rx="1" fill="#0ECB81" opacity="0.42"/>
<rect x="616.7" y="360.0" width="13.0" height="40.0" rx="1" fill="#0ECB81" opacity="0.42"/>
<rect x="709.8" y="374.0" width="13.0" height="26.0" rx="1" fill="#F6465D" opacity="0.42"/>
<rect x="802.9" y="380.0" width="13.0" height="20.0" rx="1" fill="#F6465D" opacity="0.42"/>
<text x="64.6" y="418" text-anchor="middle" font-family="ui-monospace,'SF Mono',SFMono-Regular,Menlo,Consolas,monospace" font-size="10" fill="#6E7887">01</text>
<text x="437.0" y="418" text-anchor="middle" font-family="ui-monospace,'SF Mono',SFMono-Regular,Menlo,Consolas,monospace" font-size="10" fill="#6E7887">05</text>
</svg>